<?xml version="1.0" standalone="no"?>
<!DOCTYPE svg PUBLIC "-//W3C//DTD SVG 1.1//EN" "http://www.w3.org/Graphics/SVG/1.1/DTD/svg11.dtd" >
<svg xmlns="http://www.w3.org/2000/svg">
<metadata></metadata>
<defs>
<font id="built_titlingbold" horiz-adv-x="927" >
<font-face units-per-em="2048" ascent="1561" descent="-487" />
<missing-glyph horiz-adv-x="405" />
<glyph unicode="&#x28;C&#x29;" horiz-adv-x="1290" d="M45 776q0 182 6 297t19.5 186.5t34 112.5t49.5 78q29 35 68.5 59.5t98 40t138.5 21.5t184 6q106 0 186 -6t138.5 -21.5t99.5 -40t70 -59.5q29 -37 49 -78t33.5 -112.5t19.5 -186.5t6 -297t-6 -298t-19.5 -187.5t-34 -113.5t-48.5 -77q-29 -37 -70 -60.5t-99.5 -38.5 t-138 -21.5t-186.5 -6.5q-104 0 -184 6.5t-138.5 21.5t-98 38.5t-68.5 60.5q-29 35 -49.5 77t-34 113.5t-19.5 187.5t-6 298zM223 776q0 -162 4 -262t12.5 -160.5t20.5 -90.5t31 -52q27 -35 106.5 -47t245.5 -12q168 0 246.5 12t105.5 47q18 23 32.5 53.5t23 91t12.5 159.5 t4 261q0 160 -4 259.5t-12.5 157.5t-22.5 89t-33 53q-29 35 -108.5 50.5t-243.5 15.5t-244 -15.5t-108 -50.5q-18 -23 -30.5 -52.5t-21 -87.5t-12.5 -157.5t-4 -261.5zM430 793q0 92 2 150t7 94t12.5 57.5t17.5 40.5q20 37 61 50t115 13q68 0 109 -13.5t63.5 -41t29.5 -71.5 t7 -107q0 -16 -1 -34t-1 -38h-156q0 63 -1 87t-5 36q-6 18 -45 18q-35 0 -41 -18q-2 -8 -4 -19.5t-3 -35t-1 -62.5v-104v-106t1 -63.5t3 -34.5t4 -20q4 -10 13.5 -15t33.5 -5q29 0 37 18q8 23 9 48.5t1 76.5h154q2 -20 3 -37.5t1 -35.5q0 -63 -7 -109.5t-28.5 -77.5 t-62.5 -45t-107 -14q-78 0 -120 14t-62 49q-10 18 -17.5 41t-12.5 62t-7 99t-2 153z" />
<glyph unicode="&#x28;R&#x29;" horiz-adv-x="1290" d="M45 776q0 182 6 297t19.5 186.5t34 112.5t49.5 78q29 35 68.5 59.5t98 40t138.5 21.5t184 6q106 0 186 -6t138.5 -21.5t99.5 -40t70 -59.5q29 -37 49 -78t33.5 -112.5t19.5 -186.5t6 -297t-6 -298t-19.5 -187.5t-34 -113.5t-48.5 -77q-29 -37 -70 -60.5t-99.5 -38.5 t-138 -21.5t-186.5 -6.5q-104 0 -184 6.5t-138.5 21.5t-98 38.5t-68.5 60.5q-29 35 -49.5 77t-34 113.5t-19.5 187.5t-6 298zM223 776q0 -162 4 -262t12.5 -160.5t20.5 -90.5t31 -52q27 -35 106.5 -47t245.5 -12q168 0 246.5 12t105.5 47q18 23 32.5 53.5t23 91t12.5 159.5 t4 261q0 160 -4 259.5t-12.5 157.5t-22.5 89t-33 53q-29 35 -108.5 50.5t-243.5 15.5t-244 -15.5t-108 -50.5q-18 -23 -30.5 -52.5t-21 -87.5t-12.5 -157.5t-4 -261.5zM440 387v799h242q106 0 142 -50.5t36 -164.5q0 -55 -4 -90t-12 -56.5t-21.5 -33t-29.5 -19.5v-20 q6 -4 13 -11.5t13 -21.5q8 -20 16.5 -53t16.5 -103q6 -49 10 -77.5t6 -46t4 -27t5 -17.5v-8h-175q-4 10 -7 20.5t-7 34t-9 63.5t-11 109q-6 53 -13.5 68.5t-23.5 15.5h-25v-311h-166zM606 846h47q23 0 32 19.5t9 76.5q0 47 -10 62.5t-35 15.5h-43v-174z" />
<glyph horiz-adv-x="0" />
<glyph unicode="&#xd;" horiz-adv-x="405" />
<glyph horiz-adv-x="405" />
<glyph unicode=" "  horiz-adv-x="405" />
<glyph unicode="&#x09;" horiz-adv-x="405" />
<glyph unicode="&#xa0;" horiz-adv-x="405" />
<glyph unicode="!" horiz-adv-x="493" d="M70 1614h352l-37 -1149h-274zM86 0v309h322v-309h-322z" />
<glyph unicode="&#x22;" horiz-adv-x="770" d="M59 991zM59 1614h295l-43 -623h-207zM413 1614h295l-43 -623h-207z" />
<glyph unicode="#" d="M31 436v195h157v293h-157v194h157v432h195v-432h160v432h196v-432h158v-194h-158v-293h158v-195h-158v-436h-196v436h-160v-436h-195v436h-157zM383 631h160v293h-160v-293z" />
<glyph unicode="$" d="M51 1096q0 86 15.5 146.5t55.5 99t107.5 57t171.5 22.5v219h129v-219q88 -4 148.5 -20.5t98.5 -49t55.5 -86t17.5 -128.5q0 -66 -6 -111h-295v43q0 53 -18.5 77.5t-73.5 24.5q-59 0 -77 -26.5t-18 -67.5q0 -43 16.5 -61.5t65.5 -38.5q47 -18 86 -30.5t75 -24t68 -23.5 t64 -29q35 -16 61.5 -37.5t44 -56.5t26 -85t8.5 -122q0 -104 -17.5 -177t-57.5 -121t-106.5 -71.5t-165.5 -29.5v-258h-129v256q-180 4 -263 65.5t-83 206.5q0 43 2 81t9 73h292v-35q0 -59 16.5 -89t82.5 -30q68 0 82 32t14 77q0 43 -15.5 62.5t-60.5 39.5q-82 39 -169 66.5 t-154 73.5q-33 20 -53.5 45.5t-31 61.5t-14.5 84t-4 114z" />
<glyph unicode="%" horiz-adv-x="1267" d="M45 0zM45 1143q0 160 6 250t29.5 133t71 52t131.5 9q82 0 130 -9t71.5 -52t29.5 -133.5t6 -249.5q0 -162 -6 -251t-29.5 -132t-71.5 -52.5t-130 -9.5q-84 0 -131.5 9.5t-71 52.5t-29.5 132t-6 251zM90 0v10l886 1540h199v-10l-889 -1540h-196zM242 1147q0 -88 1 -136.5 t5 -71t12.5 -26.5t22.5 -4t22 4t12.5 26.5t5.5 71t1 136.5q0 90 -1 139t-4.5 72.5t-12.5 27.5t-23 4q-16 0 -24.5 -4t-11.5 -27.5t-4 -72.5t-1 -139zM756 410q0 160 6 250t29.5 133t71 52t131.5 9q82 0 130 -9t71.5 -52t29.5 -133.5t6 -249.5q0 -162 -6 -251t-29.5 -132 t-71.5 -52.5t-130 -9.5q-84 0 -131.5 9.5t-71 52.5t-29.5 132t-6 251zM953 414q0 -88 1 -136.5t5 -71t12.5 -26.5t22.5 -4t22 4t12.5 26.5t5.5 71t1 136.5q0 90 -1 139t-4.5 72.5t-12.5 27.5t-23 4q-16 0 -24.5 -4t-11.5 -27.5t-4 -72.5t-1 -139z" />
<glyph unicode="&#x26;" horiz-adv-x="1112" d="M45 430q0 104 6 170t26.5 112t58.5 78.5t104 69.5l77 43l-53 98q-23 39 -37 68t-22 56.5t-12.5 60.5t-4.5 80q0 96 15.5 157.5t55.5 95t110.5 46t179.5 12.5q92 0 153.5 -12.5t99.5 -50t53 -107.5t15 -186q0 -86 -8 -143.5t-27.5 -98.5t-49 -69.5t-72.5 -55.5l-72 -47 l92 -156l66 135h295v-10l-213 -379l223 -387v-10h-277l-86 154l-26 -48q-18 -33 -41 -57t-55.5 -41.5t-78.5 -26t-112 -8.5q-131 0 -208 18.5t-115.5 70t-49 140.5t-10.5 228zM367 426.5q0 -23.5 2 -38.5t4 -24.5t8 -17.5q10 -16 27.5 -21.5t56.5 -5.5q47 0 67.5 10.5 t38.5 45.5l23 41l-150 264l-41 -27q-12 -8 -19 -18t-11 -27.5t-5 -46.5t-1 -74v-60.5zM455 1192q0 -53 11 -77.5t36 -65.5l18 -33l35 20q16 8 28.5 18.5t19.5 27t11 42t4 68.5q0 68 -14 84t-67 16t-67.5 -16t-14.5 -84z" />
<glyph unicode="'" horiz-adv-x="415" d="M59 1614h295l-43 -623h-207z" />
<glyph unicode="(" d="M305 741q0 283 24.5 486t67.5 346t99.5 237.5t117.5 159.5h236v-12q-59 -84 -114.5 -173t-97.5 -222t-67.5 -330t-25.5 -494q0 -197 11 -348t32.5 -268t50.5 -204t62.5 -155.5t71.5 -126t77 -112.5v-12h-236q-61 66 -117.5 160t-99.5 237t-67.5 346t-24.5 485z" />
<glyph unicode=")" d="M78 -475q39 55 77 112.5t71.5 126t62 155.5t50 204t33 267.5t11.5 348.5q0 297 -25.5 494t-67.5 330t-97.5 222t-114.5 173v12h235q61 -66 117.5 -160t99.5 -237t68 -346t25 -486t-25 -485.5t-68 -345.5t-99 -237.5t-118 -159.5h-235v12z" />
<glyph unicode="*" horiz-adv-x="1017" d="M70 1159l65 193l291 -131l14 14l-30 315h198l-30 -315l12 -14l293 131l65 -193l-313 -67l-6 -17l217 -239l-166 -121l-160 278h-22l-160 -278l-166 121l217 239l-6 17z" />
<glyph unicode="+" d="M31 657v240h313v313h240v-313h313v-240h-313v-313h-240v313h-313z" />
<glyph unicode="," horiz-adv-x="460" d="M70 20v289h321v-301l-153 -299h-156v12l100 281l-6 18h-106z" />
<glyph unicode="-" horiz-adv-x="747" d="M41 653v254h664v-254h-664z" />
<glyph unicode="." horiz-adv-x="460" d="M70 0v309h321v-309h-321z" />
<glyph unicode="/" d="M33 -313l626 2050h236l-627 -2050h-235z" />
<glyph unicode="0" d="M45 776q0 193 4 328t18.5 224t41 139.5t73.5 75t116 29.5t165 5t165.5 -5t116 -29.5t74 -75t41.5 -139.5t18.5 -224t4.5 -328q0 -195 -4.5 -330t-18.5 -224t-41.5 -139t-74 -74.5t-116 -30t-165.5 -5.5t-165 5.5t-116 30t-73.5 74.5t-41 139t-18.5 224.5t-4 329.5z M365 784q0 -172 3 -266t12 -138t28.5 -52.5t54.5 -8.5t54.5 8.5t29.5 52.5t13 138t3 266q0 176 -2 272.5t-11 141.5t-29.5 53.5t-57.5 8.5t-56.5 -8.5t-28.5 -53.5t-11 -141t-2 -273z" />
<glyph unicode="1" d="M78 1020v285h139q41 0 68.5 4t44 18t24.5 42t11 73l6 108h266v-1206h213v-344h-768v344h225v676h-229z" />
<glyph unicode="2" d="M49 1023.5v96.5q0 123 14.5 210t57.5 142.5t123 80t211 24.5q74 0 129 -6t96 -20.5t69.5 -38t49.5 -58.5q16 -29 30.5 -62.5t24.5 -77.5t16.5 -102.5t6.5 -138.5q0 -92 -6.5 -161.5t-29 -131t-68.5 -123t-126 -137.5l-178 -170l6 -18h387v-332h-784v356l201 201 q70 70 112.5 113t67 70.5t38 47t25.5 43.5q12 25 18.5 44.5t9.5 45t4 60.5t1 88q0 66 -5 98.5t-15 55.5q-6 16 -22.5 26.5t-57.5 10.5q-68 0 -84 -37q-6 -20 -11.5 -63.5t-5.5 -141.5v-29.5t2 -23.5h-303q-4 27 -4 58.5z" />
<glyph unicode="3" d="M45 455q0 29 1 48t3 34h301q-2 -12 -2 -23.5v-24.5q0 -51 4 -77.5t15 -51.5q10 -23 29.5 -33t62.5 -10q68 0 94.5 29t26.5 121q0 72 -3.5 113t-15.5 60t-36.5 24.5t-65.5 5.5h-164v243h164q33 0 54.5 4.5t31.5 22.5t14 57t4 107q0 57 -4 90t-14 49.5t-31.5 19.5t-54.5 3 q-82 0 -90 -39q-4 -16 -10.5 -46t-6.5 -85v-22.5t2 -18.5h-301q-2 16 -2 31.5v29.5q-2 125 15.5 213t62.5 143.5t125 80t205 24.5t204.5 -14.5t125 -59.5t61.5 -129t16 -223q0 -86 -5 -142.5t-18.5 -94t-34 -62.5t-50.5 -45v-14q31 -18 54.5 -35t40.5 -52.5t25.5 -102 t8.5 -185.5q0 -125 -14.5 -210t-59.5 -137.5t-129 -75t-225 -22.5q-135 0 -217 29t-125 88.5t-57.5 150.5t-14.5 214z" />
<glyph unicode="4" d="M27 262v301l450 987h307v-1005h117v-283h-117v-262h-299v262h-458zM324 563l8 -18h164v381h-23z" />
<glyph unicode="5" d="M51 455q0 66 6 139h297q-2 -14 -2 -33.5v-36.5q0 -96 15.5 -150.5t83.5 -54.5q47 0 65.5 8.5t24.5 28.5q10 35 15 91.5t5 168.5q0 57 -4 92t-17.5 53.5t-37 25t-62.5 6.5q-61 0 -104 -37l-250 80l49 714h723v-329h-438l-19 -179q23 8 66 17.5t104 9.5q78 0 136.5 -23.5 t97.5 -75.5t58.5 -136t19.5 -207q0 -113 -5.5 -196t-14.5 -145.5t-23.5 -107.5t-34.5 -78q-20 -35 -49 -59.5t-71 -39.5t-100.5 -21.5t-133.5 -6.5q-129 0 -208 29t-122 88.5t-56.5 150.5t-13.5 214z" />
<glyph unicode="6" d="M47 776q0 193 4 328t18.5 224t41 139.5t73.5 75t116 29.5t165 5q135 0 214 -12.5t120 -57.5t52 -136t11 -247h-295q2 6 2 37q0 66 -22.5 82.5t-81.5 16.5q-43 0 -63.5 -15.5t-28.5 -85.5q-2 -12 -3 -35.5t-2 -52.5t-2 -60.5t-1 -60.5q47 8 91 12.5t81 4.5 q86 0 150.5 -20.5t107.5 -71t64.5 -137.5t21.5 -220q0 -172 -18.5 -278.5t-65.5 -166t-127 -80t-205 -20.5q-90 0 -156.5 9.5t-112.5 37t-76 82t-45.5 143.5t-21.5 219t-6 312zM367 563q0 -47 1 -79.5t4 -55t6 -39t9 -31.5q10 -23 28.5 -31t53.5 -8q33 0 51.5 5.5t27.5 31 t12 79.5t3 151q0 80 -21.5 106.5t-74.5 26.5q-43 0 -66.5 -7t-33.5 -16v-133z" />
<glyph unicode="7" d="M49 1221v329h830v-176l-379 -1374h-361l342 1200l-8 21h-424z" />
<glyph unicode="8" d="M37 418q0 119 8 185.5t24.5 102t40 52t54.5 35.5v14q-31 20 -51.5 45t-33.5 62.5t-18.5 94t-5.5 142.5q0 139 16.5 223t61.5 129t125 59.5t205 14.5t205 -14.5t126 -59.5t62 -129t16 -223q0 -86 -5 -142.5t-18 -94t-33.5 -62.5t-51.5 -45v-14q31 -18 54.5 -35t39.5 -52.5 t24.5 -102t8.5 -185.5q0 -125 -14.5 -210t-59.5 -137.5t-129 -75t-225 -22.5q-139 0 -223 22.5t-129 75t-59.5 137.5t-14.5 210zM344 467q0 -92 26.5 -123t92.5 -31q68 0 94.5 31t26.5 123q0 74 -4.5 116t-17.5 62.5t-36.5 24.5t-62.5 4t-62.5 -4t-36 -24.5t-16.5 -62.5 t-4 -116zM360 1106q0 -70 4.5 -110t16.5 -59t31.5 -23.5t50.5 -4.5t51.5 4.5t31.5 23.5t16 58t5 109q0 57 -4 91t-14 50.5t-31.5 20.5t-54.5 4t-53.5 -4t-30.5 -19.5t-14.5 -49.5t-4.5 -91z" />
<glyph unicode="9" d="M45 1083q0 160 14.5 257.5t58.5 149.5t126 69.5t219 17.5q141 0 224 -17.5t126 -71.5t56.5 -153.5t13.5 -263.5q0 -150 -18.5 -287t-53.5 -267t-89 -258t-124 -259h-367v18q43 68 83 143t75 150.5t62.5 148t46.5 138.5l-19 12q-10 -6 -41.5 -11t-72.5 -5 q-102 0 -165 20.5t-97.5 74.5t-46 149.5t-11.5 244.5zM365 995q0 -80 20.5 -106.5t73.5 -26.5q35 0 55.5 4.5t32.5 10.5q8 27 11 55.5t3 85.5q0 45 -1 77.5t-4 55.5t-7 39t-10 31q-10 23 -27.5 32t-54.5 9q-31 0 -49.5 -5.5t-27.5 -32t-12 -79.5t-3 -150z" />
<glyph unicode=":" horiz-adv-x="514" d="M96 0v309h322v-309h-322zM96 838v309h322v-309h-322z" />
<glyph unicode=";" horiz-adv-x="514" d="M96 20v289h322v-301l-154 -299h-155v12l100 281l-6 18h-107zM96 838v309h322v-309h-322z" />
<glyph unicode="&#x3c;" d="M31 657v240l856 377h10v-258l-555 -228v-22l555 -225v-260h-10z" />
<glyph unicode="=" d="M31 393v238h866v-238h-866zM31 924v239h866v-239h-866z" />
<glyph unicode="&#x3e;" d="M31 281v260l557 225v22l-557 228v258h12l854 -377v-240l-854 -376h-12z" />
<glyph unicode="?" horiz-adv-x="851" d="M51 1235q0 98 19.5 163.5t63.5 105.5t116 56.5t176 16.5q115 0 188.5 -20.5t116.5 -66.5t60.5 -121t17.5 -183q0 -82 -3 -138.5t-12.5 -96.5t-23.5 -69.5t-39 -56.5q-37 -41 -72.5 -63.5t-64.5 -52.5q-10 -10 -17.5 -22.5t-11.5 -38t-5 -68.5t-1 -115h-276q-4 35 -4 91 v122q0 82 33.5 134t111.5 114q33 27 52.5 44t28.5 37.5t11 50t2 79.5q0 72 -16.5 99.5t-75.5 27.5t-76.5 -28t-17.5 -99v-40.5t2 -27.5h-268q-8 29 -11.5 65.5t-3.5 100.5zM258 0v309h322v-309h-322z" />
<glyph unicode="@" horiz-adv-x="1380" d="M63 498q0 223 6.5 361t19.5 219t32.5 121t46.5 67q76 72 207 100.5t325 28.5q166 0 284 -20.5t192 -71.5q35 -23 60.5 -60t41.5 -109.5t24.5 -193.5t8.5 -311q0 -145 -2 -231.5t-8.5 -136.5t-15.5 -74.5t-23 -47.5q-25 -41 -72 -55t-129 -14q-102 0 -152.5 19.5 t-77.5 49.5h-22q-23 -27 -59.5 -48t-106.5 -21q-45 0 -76.5 14t-52 56t-30 116t-9.5 193q0 168 8.5 269t27.5 156.5t49 73t73 17.5q61 0 98 -22.5t62 -53.5l6 4l2 51h180v-627q0 -43 14 -57q14 -20 54 -20q27 0 38 6t19 22q2 6 4 19.5t4 51.5t2 109.5v196.5q0 156 -5 250 t-14.5 146.5t-24.5 75t-36 36.5q-94 59 -336 59q-137 0 -218 -20.5t-126 -67.5q-14 -16 -24 -40.5t-16.5 -89t-9.5 -181.5t-3 -315q0 -182 2 -291t6 -170.5t11.5 -87t17.5 -41.5q20 -33 52 -53.5t79 -30.5t113.5 -14.5t156.5 -4.5q131 0 211 10.5t123 31t57.5 52t14.5 74.5 h190l3 -24t1 -19q0 -74 -23.5 -139t-93 -115.5t-193.5 -79t-324 -28.5q-223 0 -361.5 32.5t-206.5 131.5q-20 29 -34.5 76t-23.5 133t-13.5 220t-4.5 337zM672 477q0 -59 1 -95t3 -55.5t4 -29.5t6 -16q10 -16 35 -17q25 0 38 7.5t23 19.5v422q-10 10 -23.5 16t-37.5 6 q-14 0 -22.5 -3t-12.5 -13q-4 -6 -6 -16.5t-4 -35t-3 -69.5t-1 -121z" />
<glyph unicode="A" horiz-adv-x="911" d="M25 0l165 1550h541l156 -1550h-332l-27 358h-155l-25 -358h-323zM387 672h127l-53 555h-23z" />
<glyph unicode="B" horiz-adv-x="942" d="M70 0v1550h460q104 0 173 -23.5t111 -73.5t59.5 -129t17.5 -191q0 -84 -5 -137.5t-18.5 -88.5t-34 -57.5t-51.5 -42.5v-14q31 -18 54.5 -35t41 -52.5t25.5 -102t8 -185.5q0 -113 -16 -192t-56 -129t-107.5 -73.5t-172.5 -23.5h-489zM391 313h103q47 0 68.5 29t21.5 119 q0 106 -18.5 151t-63.5 45h-111v-344zM391 913h94q47 0 64.5 37t17.5 142q0 92 -21.5 121.5t-68.5 29.5h-86v-330z" />
<glyph unicode="C" horiz-adv-x="925" d="M45 788q0 180 4 293t13.5 184.5t23.5 112.5t35 76q41 70 118.5 96.5t225.5 26.5q131 0 211 -24.5t123 -80t57 -142.5t14 -210q0 -29 -1 -63.5t-3 -73.5h-301q0 61 -1 102t-3 68t-5 42t-5 26q-8 39 -86 39q-39 0 -56.5 -9.5t-23.5 -29.5q-6 -16 -9 -38t-6 -66t-4 -121.5 t-1 -202.5q0 -129 1 -207t4 -123t6 -67.5t9 -39.5q6 -20 24.5 -28.5t65.5 -8.5q61 0 74 35q8 20 12 43t6 50.5t3 63.5t1 83h297q6 -74 6 -139q0 -123 -13 -214t-56 -150.5t-122 -88.5t-208 -29q-154 0 -234.5 28t-119.5 99q-20 33 -34.5 78t-24 121t-13.5 192.5t-4 296.5z " />
<glyph unicode="D" horiz-adv-x="964" d="M70 0v1550h432q147 0 225 -27.5t119 -95.5q20 -35 33.5 -74.5t22.5 -109t13.5 -180.5t4.5 -287t-4.5 -287.5t-13.5 -181t-22.5 -110.5t-33.5 -74q-20 -35 -49 -58.5t-70 -38t-96.5 -20.5t-128.5 -6h-432zM391 342h103q39 0 55 8t24 29q4 14 8.5 33.5t6.5 62.5t3 116 t1 191q0 119 -1 194t-3 118t-6 63.5t-9 34.5q-8 16 -24.5 24.5t-54.5 8.5h-103v-883z" />
<glyph unicode="E" horiz-adv-x="815" d="M70 0v1550h686v-327h-365v-273h359v-313h-359v-293h363v-344h-684z" />
<glyph unicode="F" horiz-adv-x="782" d="M70 0v1550h675v-327h-354v-310h348v-315h-348v-598h-321z" />
<glyph unicode="G" horiz-adv-x="919" d="M45 788q0 180 4 293t13.5 184.5t23.5 112.5t35 76q41 70 118.5 96.5t225.5 26.5q170 0 256 -44t121 -149q26 -83 26 -217v-10v-44t-2 -36h-299q2 6 2 13.5v13.5q0 51 -4 75.5t-8 41.5q-8 39 -94 39q-41 0 -60.5 -9.5t-27.5 -29.5q-4 -16 -8.5 -38t-6.5 -66t-3 -121.5 t-1 -202.5q0 -133 1 -212t3 -123t5.5 -63.5t7.5 -34.5q16 -45 98 -45q41 0 60.5 9.5t31.5 29.5q6 10 11.5 21.5t7.5 30t3 46t1 74.5v74h-150v311h438q2 -41 3.5 -118.5t1.5 -186.5q0 -127 -4.5 -211t-13.5 -139t-22.5 -90t-31.5 -66q-20 -37 -48 -60.5t-69 -38.5t-96 -21.5 t-129 -6.5q-150 0 -226.5 28t-117.5 99q-20 35 -34.5 77t-24 116t-13.5 190.5t-4 304.5z" />
<glyph unicode="H" horiz-adv-x="991" d="M66 0v1550h329v-600h201v600h330v-1550h-330v637h-201v-637h-329z" />
<glyph unicode="I" horiz-adv-x="477" d="M74 0v1550h329v-1550h-329z" />
<glyph unicode="J" horiz-adv-x="907" d="M25 455q0 66 6 139h286q0 -47 1 -83t3.5 -63.5t6.5 -50t10 -43.5q14 -35 74 -35q47 0 65.5 8.5t26.5 28.5q4 16 8 39t6 68t3 122t1 206v759h330v-751q0 -176 -4 -295t-13.5 -198t-22.5 -126t-34 -80q-20 -35 -49 -59.5t-71 -39.5t-100 -21.5t-134 -6.5q-129 0 -208 29 t-122 88.5t-56 150.5t-13 214z" />
<glyph unicode="K" horiz-adv-x="999" d="M70 0v1550h329v-565q0 -25 -1 -44t-3 -40h21l207 649h338v-10l-236 -692l254 -838v-10h-369l-194 696h-21q4 -27 4 -56.5v-57.5v-582h-329z" />
<glyph unicode="L" horiz-adv-x="749" d="M70 0v1550h321v-1206h332v-344h-653z" />
<glyph unicode="M" horiz-adv-x="1357" d="M66 0v1550h454l144 -673h14l160 673h452l2 -1550h-295v930h-12l-235 -930h-142l-237 930h-13v-930h-292z" />
<glyph unicode="N" horiz-adv-x="972" d="M68 0v1550h315l217 -538h12v538h295v-1550h-168l-366 831h-13v-831h-292z" />
<glyph unicode="O" d="M45 776q0 182 4 297t13.5 186.5t23.5 112.5t35 78q20 35 48 59.5t69 40t97 21.5t130 6q147 0 224 -28.5t118 -98.5q20 -37 34.5 -78t23.5 -112.5t13.5 -186.5t4.5 -297t-4.5 -298t-13.5 -187.5t-23.5 -113.5t-34.5 -77q-20 -37 -48 -60.5t-69 -38.5t-96 -21.5t-129 -6.5 q-150 0 -226.5 28t-117.5 99q-20 35 -34.5 77t-24 113.5t-13.5 187.5t-4 298zM365 784q0 -125 1 -201.5t4 -121.5t6 -67.5t9 -37.5q6 -20 23.5 -28.5t56.5 -8.5t55.5 8.5t24.5 28.5q4 14 8 37t6 68t3 121.5t1 201.5q0 129 -1 207t-3 124t-6 68.5t-8 37.5q-8 20 -24.5 29.5 t-55.5 9.5t-56.5 -9.5t-23.5 -29.5q-6 -14 -9 -37t-6 -69t-4 -124t-1 -207z" />
<glyph unicode="P" horiz-adv-x="921" d="M70 0v1550h465q104 0 171.5 -27.5t107.5 -90t55.5 -164t15.5 -250.5q0 -152 -15.5 -257.5t-55.5 -171t-107.5 -94t-171.5 -28.5h-144v-467h-321zM391 786h86q45 0 63.5 50.5t18.5 189.5q0 123 -21.5 162t-68.5 39h-78v-441z" />
<glyph unicode="Q" d="M45 811q0 174 4 283.5t13.5 179t23.5 108.5t35 74q41 68 117.5 94.5t226.5 26.5q74 0 129 -6t96 -20.5t68.5 -38t48.5 -56.5q20 -35 34.5 -74t23.5 -108.5t13.5 -179t4.5 -283.5t-4.5 -283.5t-13.5 -178t-23.5 -108.5t-34.5 -75q-16 -31 -44 -50.5t-61 -33.5 q37 -121 65 -175t46 -81v-12h-321q-8 10 -15.5 25.5t-19 42t-24.5 67.5t-34 102q-115 4 -179 29.5t-99 85.5q-20 35 -34.5 75t-24 108.5t-13.5 178t-4 283.5zM365 809q0 -125 1 -198.5t4 -116.5t6 -61.5t9 -33.5q6 -18 23.5 -24t56.5 -6t55.5 6t24.5 24q4 14 8 33t6 59.5 t3 115.5t1 202q0 121 -1 195.5t-3 118.5t-6 64.5t-8 35.5q-8 18 -24.5 27.5t-55.5 9.5t-56.5 -9.5t-23.5 -27.5q-6 -14 -9 -35t-6 -65t-4 -118.5t-1 -195.5z" />
<glyph unicode="R" horiz-adv-x="946" d="M70 0v1550h469q104 0 171.5 -23.5t107.5 -73.5t55.5 -129t15.5 -191q0 -121 -8.5 -190t-25.5 -107.5t-42 -58t-57 -38.5v-12q12 -10 25.5 -22.5t23.5 -40.5q16 -37 33.5 -112t33.5 -210q12 -94 18.5 -151.5t11.5 -92.5t8 -53t10 -35v-10h-342q-6 18 -11.5 39.5t-11.5 66 t-16.5 122t-24.5 212.5q-6 53 -12 86t-14.5 50.5t-20.5 22.5t-27 5h-49v-604h-321zM391 893h90q45 0 63.5 38t18.5 146q0 92 -21.5 123t-68.5 31h-82v-338z" />
<glyph unicode="S" horiz-adv-x="860" d="M37 1186q0 109 17.5 183.5t60.5 120.5t116.5 66.5t188.5 20.5q104 0 175 -16.5t116 -56.5t64.5 -105.5t19.5 -163.5q0 -63 -3.5 -100t-13.5 -66h-266q2 16 2 27.5v40.5q0 72 -17.5 99.5t-76.5 27.5t-75.5 -28t-16.5 -99q0 -68 17 -95.5t56 -50.5q45 -27 85 -45t74 -33.5 t64.5 -30t61.5 -34.5q33 -25 58.5 -52.5t41 -71.5t23.5 -108.5t8 -160.5q0 -139 -19.5 -231.5t-65.5 -148t-125 -79t-195 -23.5q-193 0 -283 73t-90 255q0 59 3 119.5t13 97.5h269q-4 -12 -4.5 -26.5t-0.5 -30.5q0 -90 18.5 -124t80.5 -34q61 0 80.5 29.5t19.5 128.5 q0 59 -18.5 90t-59.5 59q-37 25 -79 45.5t-83.5 39t-80.5 40t-70 49.5q-63 55 -76.5 151.5t-13.5 250.5z" />
<glyph unicode="T" horiz-adv-x="862" d="M27 1223v327h809v-327h-244v-1223h-322v1223h-243z" />
<glyph unicode="U" horiz-adv-x="946" d="M55 477v1073h330v-1073q0 -55 3 -86t13.5 -47t29 -20.5t48.5 -4.5q31 0 48.5 4.5t27.5 20.5t13 47t3 86v1073h320v-1073q-2 -96 -8 -159.5t-15.5 -106.5t-21.5 -70.5t-29 -54.5q-20 -33 -48 -54.5t-69 -34.5t-96 -18.5t-129 -5.5q-150 0 -227.5 23.5t-116.5 89.5 q-16 27 -30.5 54.5t-24.5 70.5t-15.5 106.5t-5.5 159.5z" />
<glyph unicode="V" horiz-adv-x="929" d="M25 1550h348l86 -1091h22l82 1091h342l-194 -1550h-502z" />
<glyph unicode="W" horiz-adv-x="1480" d="M29 1550h325l70 -1054h22l142 1054h323l144 -1054h22l68 1054h307l-133 -1550h-455l-106 950h-23l-114 -950h-455z" />
<glyph unicode="X" horiz-adv-x="950" d="M16 0v10l201 846l-162 684v10h334l82 -432h23l94 432h311v-10l-168 -684l199 -846v-10h-344l-105 565h-22l-111 -565h-332z" />
<glyph unicode="Y" horiz-adv-x="915" d="M8 1540v10h332q33 -145 52.5 -232t30.5 -139.5t17 -79t11 -50.5h20q4 25 10 51t17.5 78.5t32 139.5t55.5 232h321v-10l-270 -971v-569h-346v565z" />
<glyph unicode="Z" horiz-adv-x="929" d="M49 0v367l410 833l-8 21h-385v329h829v-176l-489 -1012l10 -18h465v-344h-832z" />
<glyph unicode="[" d="M268 -487v2457h553v-239h-313v-1979h313v-239h-553z" />
<glyph unicode="\" d="M33 1737h235l627 -2050h-236z" />
<glyph unicode="]" d="M106 -248h314v1979h-314v239h553v-2457h-553v239z" />
<glyph unicode="^" d="M31 684v12l329 854h209l328 -854v-12h-238l-184 524h-20l-185 -524h-239z" />
<glyph unicode="_" d="M2 -119h924v-254h-924v254z" />
<glyph unicode="`" horiz-adv-x="614" d="M70 1554v13h288l187 -344v-11h-240z" />
<glyph unicode="a" horiz-adv-x="911" d="M25 0l165 1550h541l156 -1550h-332l-27 358h-155l-25 -358h-323zM25 0zM387 672h127l-53 555h-23z" />
<glyph unicode="b" horiz-adv-x="942" d="M70 0v1550h460q104 0 173 -23.5t111 -73.5t59.5 -129t17.5 -191q0 -84 -5 -137.5t-18.5 -88.5t-34 -57.5t-51.5 -42.5v-14q31 -18 54.5 -35t41 -52.5t25.5 -102t8 -185.5q0 -113 -16 -192t-56 -129t-107.5 -73.5t-172.5 -23.5h-489zM70 0zM391 313h103q47 0 68.5 29 t21.5 119q0 106 -18.5 151t-63.5 45h-111v-344zM391 913h94q47 0 64.5 37t17.5 142q0 92 -21.5 121.5t-68.5 29.5h-86v-330z" />
<glyph unicode="c" horiz-adv-x="925" d="M45 0zM45 788q0 180 4 293t13.5 184.5t23.5 112.5t35 76q41 70 118.5 96.5t225.5 26.5q131 0 211 -24.5t123 -80t57 -142.5t14 -210q0 -29 -1 -63.5t-3 -73.5h-301q0 61 -1 102t-3 68t-5 42t-5 26q-8 39 -86 39q-39 0 -56.5 -9.5t-23.5 -29.5q-6 -16 -9 -38t-6 -66 t-4 -121.5t-1 -202.5q0 -129 1 -207t4 -123t6 -67.5t9 -39.5q6 -20 24.5 -28.5t65.5 -8.5q61 0 74 35q8 20 12 43t6 50.5t3 63.5t1 83h297q6 -74 6 -139q0 -123 -13 -214t-56 -150.5t-122 -88.5t-208 -29q-154 0 -234.5 28t-119.5 99q-20 33 -34.5 78t-24 121t-13.5 192.5 t-4 296.5z" />
<glyph unicode="d" horiz-adv-x="964" d="M70 0v1550h432q147 0 225 -27.5t119 -95.5q20 -35 33.5 -74.5t22.5 -109t13.5 -180.5t4.5 -287t-4.5 -287.5t-13.5 -181t-22.5 -110.5t-33.5 -74q-20 -35 -49 -58.5t-70 -38t-96.5 -20.5t-128.5 -6h-432zM70 0zM391 342h103q39 0 55 8t24 29q4 14 8.5 33.5t6.5 62.5 t3 116t1 191q0 119 -1 194t-3 118t-6 63.5t-9 34.5q-8 16 -24.5 24.5t-54.5 8.5h-103v-883z" />
<glyph unicode="e" horiz-adv-x="815" d="M70 0v1550h686v-327h-365v-273h359v-313h-359v-293h363v-344h-684zM70 0z" />
<glyph unicode="f" horiz-adv-x="782" d="M70 0v1550h675v-327h-354v-310h348v-315h-348v-598h-321zM70 0z" />
<glyph unicode="g" horiz-adv-x="919" d="M45 0zM45 788q0 180 4 293t13.5 184.5t23.5 112.5t35 76q41 70 118.5 96.5t225.5 26.5q170 0 256 -44t121 -149q26 -83 26 -217v-10v-44t-2 -36h-299q2 6 2 13.5v13.5q0 51 -4 75.5t-8 41.5q-8 39 -94 39q-41 0 -60.5 -9.5t-27.5 -29.5q-4 -16 -8.5 -38t-6.5 -66 t-3 -121.5t-1 -202.5q0 -133 1 -212t3 -123t5.5 -63.5t7.5 -34.5q16 -45 98 -45q41 0 60.5 9.5t31.5 29.5q6 10 11.5 21.5t7.5 30t3 46t1 74.5v74h-150v311h438q2 -41 3.5 -118.5t1.5 -186.5q0 -127 -4.5 -211t-13.5 -139t-22.5 -90t-31.5 -66q-20 -37 -48 -60.5t-69 -38.5 t-96 -21.5t-129 -6.5q-150 0 -226.5 28t-117.5 99q-20 35 -34.5 77t-24 116t-13.5 190.5t-4 304.5z" />
<glyph unicode="h" horiz-adv-x="991" d="M66 0v1550h329v-600h201v600h330v-1550h-330v637h-201v-637h-329zM66 0z" />
<glyph unicode="i" horiz-adv-x="477" d="M74 0v1550h329v-1550h-329zM74 0z" />
<glyph unicode="j" horiz-adv-x="907" d="M25 0zM25 455q0 66 6 139h286q0 -47 1 -83t3.5 -63.5t6.5 -50t10 -43.5q14 -35 74 -35q47 0 65.5 8.5t26.5 28.5q4 16 8 39t6 68t3 122t1 206v759h330v-751q0 -176 -4 -295t-13.5 -198t-22.5 -126t-34 -80q-20 -35 -49 -59.5t-71 -39.5t-100 -21.5t-134 -6.5 q-129 0 -208 29t-122 88.5t-56 150.5t-13 214z" />
<glyph unicode="k" horiz-adv-x="999" d="M70 0v1550h329v-565q0 -25 -1 -44t-3 -40h21l207 649h338v-10l-236 -692l254 -838v-10h-369l-194 696h-21q4 -27 4 -56.5v-57.5v-582h-329zM70 0z" />
<glyph unicode="l" horiz-adv-x="749" d="M70 0v1550h321v-1206h332v-344h-653zM70 0z" />
<glyph unicode="m" horiz-adv-x="1357" d="M66 0v1550h454l144 -673h14l160 673h452l2 -1550h-295v930h-12l-235 -930h-142l-237 930h-13v-930h-292zM66 0z" />
<glyph unicode="n" horiz-adv-x="972" d="M68 0v1550h315l217 -538h12v538h295v-1550h-168l-366 831h-13v-831h-292zM68 0z" />
<glyph unicode="o" d="M45 0zM45 776q0 182 4 297t13.5 186.5t23.5 112.5t35 78q20 35 48 59.5t69 40t97 21.5t130 6q147 0 224 -28.5t118 -98.5q20 -37 34.5 -78t23.5 -112.5t13.5 -186.5t4.5 -297t-4.5 -298t-13.5 -187.5t-23.5 -113.5t-34.5 -77q-20 -37 -48 -60.5t-69 -38.5t-96 -21.5 t-129 -6.5q-150 0 -226.5 28t-117.5 99q-20 35 -34.5 77t-24 113.5t-13.5 187.5t-4 298zM365 784q0 -125 1 -201.5t4 -121.5t6 -67.5t9 -37.5q6 -20 23.5 -28.5t56.5 -8.5t55.5 8.5t24.5 28.5q4 14 8 37t6 68t3 121.5t1 201.5q0 129 -1 207t-3 124t-6 68.5t-8 37.5 q-8 20 -24.5 29.5t-55.5 9.5t-56.5 -9.5t-23.5 -29.5q-6 -14 -9 -37t-6 -69t-4 -124t-1 -207z" />
<glyph unicode="p" horiz-adv-x="921" d="M70 0v1550h465q104 0 171.5 -27.5t107.5 -90t55.5 -164t15.5 -250.5q0 -152 -15.5 -257.5t-55.5 -171t-107.5 -94t-171.5 -28.5h-144v-467h-321zM70 0zM391 786h86q45 0 63.5 50.5t18.5 189.5q0 123 -21.5 162t-68.5 39h-78v-441z" />
<glyph unicode="q" d="M45 0zM45 811q0 174 4 283.5t13.5 179t23.5 108.5t35 74q41 68 117.5 94.5t226.5 26.5q74 0 129 -6t96 -20.5t68.5 -38t48.5 -56.5q20 -35 34.5 -74t23.5 -108.5t13.5 -179t4.5 -283.5t-4.5 -283.5t-13.5 -178t-23.5 -108.5t-34.5 -75q-16 -31 -44 -50.5t-61 -33.5 q37 -121 65 -175t46 -81v-12h-321q-8 10 -15.5 25.5t-19 42t-24.5 67.5t-34 102q-115 4 -179 29.5t-99 85.5q-20 35 -34.5 75t-24 108.5t-13.5 178t-4 283.5zM365 809q0 -125 1 -198.5t4 -116.5t6 -61.5t9 -33.5q6 -18 23.5 -24t56.5 -6t55.5 6t24.5 24q4 14 8 33t6 59.5 t3 115.5t1 202q0 121 -1 195.5t-3 118.5t-6 64.5t-8 35.5q-8 18 -24.5 27.5t-55.5 9.5t-56.5 -9.5t-23.5 -27.5q-6 -14 -9 -35t-6 -65t-4 -118.5t-1 -195.5z" />
<glyph unicode="r" horiz-adv-x="946" d="M70 0v1550h469q104 0 171.5 -23.5t107.5 -73.5t55.5 -129t15.5 -191q0 -121 -8.5 -190t-25.5 -107.5t-42 -58t-57 -38.5v-12q12 -10 25.5 -22.5t23.5 -40.5q16 -37 33.5 -112t33.5 -210q12 -94 18.5 -151.5t11.5 -92.5t8 -53t10 -35v-10h-342q-6 18 -11.5 39.5t-11.5 66 t-16.5 122t-24.5 212.5q-6 53 -12 86t-14.5 50.5t-20.5 22.5t-27 5h-49v-604h-321zM70 0zM391 893h90q45 0 63.5 38t18.5 146q0 92 -21.5 123t-68.5 31h-82v-338z" />
<glyph unicode="s" horiz-adv-x="860" d="M37 0zM37 1186q0 109 17.5 183.5t60.5 120.5t116.5 66.5t188.5 20.5q104 0 175 -16.5t116 -56.5t64.5 -105.5t19.5 -163.5q0 -63 -3.5 -100t-13.5 -66h-266q2 16 2 27.5v40.5q0 72 -17.5 99.5t-76.5 27.5t-75.5 -28t-16.5 -99q0 -68 17 -95.5t56 -50.5q45 -27 85 -45 t74 -33.5t64.5 -30t61.5 -34.5q33 -25 58.5 -52.5t41 -71.5t23.5 -108.5t8 -160.5q0 -139 -19.5 -231.5t-65.5 -148t-125 -79t-195 -23.5q-193 0 -283 73t-90 255q0 59 3 119.5t13 97.5h269q-4 -12 -4.5 -26.5t-0.5 -30.5q0 -90 18.5 -124t80.5 -34q61 0 80.5 29.5 t19.5 128.5q0 59 -18.5 90t-59.5 59q-37 25 -79 45.5t-83.5 39t-80.5 40t-70 49.5q-63 55 -76.5 151.5t-13.5 250.5z" />
<glyph unicode="t" horiz-adv-x="862" d="M27 0zM27 1223v327h809v-327h-244v-1223h-322v1223h-243z" />
<glyph unicode="u" horiz-adv-x="946" d="M55 0zM55 477v1073h330v-1073q0 -55 3 -86t13.5 -47t29 -20.5t48.5 -4.5q31 0 48.5 4.5t27.5 20.5t13 47t3 86v1073h320v-1073q-2 -96 -8 -159.5t-15.5 -106.5t-21.5 -70.5t-29 -54.5q-20 -33 -48 -54.5t-69 -34.5t-96 -18.5t-129 -5.5q-150 0 -227.5 23.5t-116.5 89.5 q-16 27 -30.5 54.5t-24.5 70.5t-15.5 106.5t-5.5 159.5z" />
<glyph unicode="v" horiz-adv-x="929" d="M25 0zM25 1550h348l86 -1091h22l82 1091h342l-194 -1550h-502z" />
<glyph unicode="w" horiz-adv-x="1480" d="M29 0zM29 1550h325l70 -1054h22l142 1054h323l144 -1054h22l68 1054h307l-133 -1550h-455l-106 950h-23l-114 -950h-455z" />
<glyph unicode="x" horiz-adv-x="950" d="M16 0v10l201 846l-162 684v10h334l82 -432h23l94 432h311v-10l-168 -684l199 -846v-10h-344l-105 565h-22l-111 -565h-332zM16 0z" />
<glyph unicode="y" horiz-adv-x="915" d="M8 0zM8 1540v10h332q33 -145 52.5 -232t30.5 -139.5t17 -79t11 -50.5h20q4 25 10 51t17.5 78.5t32 139.5t55.5 232h321v-10l-270 -971v-569h-346v565z" />
<glyph unicode="z" horiz-adv-x="929" d="M49 0v367l410 833l-8 21h-385v329h829v-176l-489 -1012l10 -18h465v-344h-832zM49 0z" />
<glyph unicode="{" d="M184 621v241h105q66 0 85 34t19 105q0 82 -7 160l-14 156t-14.5 154.5t-7.5 154.5q0 186 76 265t252 79h188v-239h-180q-59 0 -77.5 -21.5t-18.5 -85.5q0 -68 7 -144.5t14 -160.5l14.5 -174t7.5 -182q0 -72 -31 -128.5t-76 -82.5v-23q45 -23 76 -79t31 -130 q0 -92 -7.5 -182l-14.5 -174t-14 -161t-7 -144q0 -63 18.5 -85t77.5 -22h180v-239h-188q-88 0 -150.5 18t-101.5 59t-57.5 106.5t-18.5 160.5q0 78 7.5 154.5t14.5 153.5t14 155.5t7 160.5q0 72 -19.5 106t-84.5 34h-105z" />
<glyph unicode="|" d="M344 -487v2457h240v-2457h-240z" />
<glyph unicode="}" d="M61 -248h181q59 0 77.5 21.5t18.5 85.5q0 68 -7 144.5t-14.5 160.5t-14.5 174t-7 182q0 74 30.5 130.5t75.5 78.5v23q-45 27 -75.5 83t-30.5 128q0 92 7 182t14.5 174t14.5 160.5t7 144.5q0 63 -18.5 85t-77.5 22h-181v239h189q176 0 252 -79t76 -265q0 -78 -7.5 -154.5 t-14.5 -154.5l-14 -156t-7 -160q0 -72 19 -105.5t85 -33.5h104v-241h-104q-66 0 -85 -34t-19 -106q0 -82 7 -160.5t14 -155.5t14.5 -154t7.5 -154q0 -94 -18.5 -160t-57.5 -107t-101.5 -59t-150.5 -18h-189v239z" />
<glyph unicode="~" d="M31 580v239q35 53 87 91t130 38q66 0 122 -15t106 -34.5t96 -35t92 -15.5q66 0 119 28.5t100 98.5h14v-234q-49 -72 -106.5 -101.5t-137.5 -29.5q-53 0 -104 15.5t-100.5 33t-96.5 33t-92 15.5q-70 0 -117 -29t-96 -98h-16z" />
<glyph unicode="&#xa1;" horiz-adv-x="493" d="M70 -467l36 1149h275l41 -1149h-352zM84 838v309h322v-309h-322z" />
<glyph unicode="&#xa2;" d="M35 799q0 141 4 230t13 145.5t24.5 89t36.5 59.5q35 49 103.5 71.5t189.5 26.5v219h129v-219q117 -4 183 -26.5t103 -71.5q41 -57 54.5 -130t13.5 -151v-39.5t-2 -41.5h-318v24q0 68 -5 93.5t-11 39.5q-8 16 -26.5 22.5t-57.5 6.5q-41 0 -57.5 -6t-24.5 -23 q-6 -10 -9 -26.5t-6 -49t-4 -89t-1 -148.5q0 -90 1 -146.5t4 -89t6 -49t9 -28.5q8 -12 24.5 -18.5t57.5 -6.5q39 0 57.5 6t26.5 19q8 16 12 39.5t4 95.5v26h318q4 -25 4 -50v-50q0 -70 -12.5 -144.5t-57.5 -140.5q-39 -53 -104.5 -74.5t-181.5 -25.5v-256h-129v256 q-123 4 -191 25.5t-102 74.5q-20 27 -35 58.5t-24 89t-14 147.5t-5 236z" />
<glyph unicode="&#xa3;" d="M31 578v131h86q-47 78 -59.5 160.5t-12.5 203.5q0 80 6 138.5t16.5 102.5t24.5 77.5t31 62.5q41 70 118.5 96.5t225.5 26.5q131 0 211 -24.5t123 -80t57 -142.5t14 -210v-97.5t-4 -57.5h-301q2 10 2 23v30q0 98 -6 141t-12 64q-14 37 -84 37q-41 0 -57.5 -10.5 t-22.5 -26.5q-20 -43 -20 -125q0 -63 5 -104.5t20.5 -81.5t46 -86t81.5 -117h301v-131h-264q2 -14 3 -28.5t1 -31.5q0 -76 -4 -108.5t-10 -63.5q16 -10 40.5 -13t78.5 -3q66 0 113.5 18.5t97.5 54.5h18v-352q-35 -35 -80 -56.5t-117 -21.5q-88 0 -138 46.5t-60 132.5h-23 q-27 -70 -92.5 -124.5t-181.5 -54.5q-29 0 -70 11.5t-74 60.5v295q63 -12 97 -12q51 0 68.5 30.5t17.5 124.5q0 20 -10.5 45t-26.5 50h-174z" />
<glyph unicode="&#xa4;" horiz-adv-x="1439" d="M70 283l184 180q-45 68 -68.5 144.5t-23.5 168.5q0 168 92 320l-182 172l161 162l175 -187q127 102 319 103q174 0 315 -103l164 187l164 -162l-178 -172q45 -72 70.5 -151t25.5 -169q0 -92 -25.5 -170t-70.5 -143l178 -180l-160 -160l-172 186q-72 -45 -146.5 -69.5 t-164.5 -24.5q-92 0 -172 24.5t-143 69.5l-179 -186zM406 776q0 -66 24.5 -124t68.5 -101t102 -68.5t126 -25.5q63 0 121.5 25.5t101.5 68.5t68.5 101.5t25.5 123.5q0 66 -25.5 124t-68.5 103.5t-101 71t-122 25.5q-68 0 -126 -25.5t-102 -71t-68.5 -103.5t-24.5 -124z" />
<glyph unicode="&#xa5;" d="M14 1540v10h330l111 -473h22l113 473h321v-10l-247 -854h198v-129h-227v-135h227v-131h-227v-291h-334v291h-246v131h246v135h-246v129h215z" />
<glyph unicode="&#xa6;" d="M344 397h240v-884h-240v884zM344 1104v866h240v-866h-240z" />
<glyph unicode="&#xa7;" horiz-adv-x="999" d="M49 791q0 147 39 224t150 103q-4 29 -4.5 56.5t-0.5 60.5q0 94 15.5 159.5t54.5 106.5t107.5 58.5t173.5 17.5q96 0 162.5 -14.5t107.5 -49t58.5 -92t17.5 -145.5q0 -53 -3 -85t-12 -58h-245q2 16 2 25v34q0 61 -16.5 86t-71.5 25q-53 0 -68.5 -25t-15.5 -86 q0 -59 16 -83t55 -44q41 -23 77 -38t66.5 -28.5t59.5 -27t57 -31.5q31 -20 53.5 -45t37 -63.5t21.5 -95t7 -140.5q0 -180 -41 -271.5t-145 -125.5v-47q0 -121 -17.5 -201t-59.5 -129t-113.5 -69.5t-180.5 -20.5q-178 0 -260 63.5t-82 224.5q0 49 3 102.5t9 86.5h246 q-2 -12 -2 -23.5v-27.5q0 -78 17.5 -108t74.5 -30q55 0 72.5 26t17.5 112q0 51 -16 77.5t-53 53.5q-35 23 -73 40t-76 33.5t-73.5 35t-66.5 42.5q-57 49 -69.5 133t-12.5 218zM313 750q0 -59 16.5 -84t55.5 -45q41 -23 77 -38.5t68.5 -29.5t64 -30t62.5 -36q18 25 19 113 q0 53 -16.5 80t-55.5 51q-59 39 -124.5 63.5t-121.5 59.5q-27 -10 -36 -33.5t-9 -70.5z" />
<glyph unicode="&#xa8;" horiz-adv-x="835" d="M70 1255v252h276v-252h-276zM492 1255v252h274v-252h-274z" />
<glyph unicode="&#xaa;" horiz-adv-x="561" d="M45 1004q0 61 12.5 101t38 62.5t66.5 30.5t98 8q25 0 41 -6l4 4v37q0 35 -5 45t-28 10q-27 0 -33 -7t-6 -29q0 -10 3 -17h-170q-2 10 -2.5 17.5t-0.5 15.5q0 47 9.5 81t33 55.5t64.5 31.5t102 10q74 0 117 -15.5t63.5 -43t25.5 -65.5t5 -81v-278q0 -35 19 -35q10 0 17 2 t16 4v-117q-6 -16 -27 -28.5t-53 -12.5q-37 0 -60.5 10.5t-40.5 26.5q-16 -16 -45.5 -26.5t-81.5 -10.5q-57 0 -93 9.5t-55.5 34t-26.5 66.5t-7 110zM219 1012q0 -41 8.5 -50.5t44.5 -9.5q20 0 33 6v127h-14q-43 0 -57.5 -13t-14.5 -60z" />
<glyph unicode="&#xab;" horiz-adv-x="954" d="M41 373zM41 674v211l414 307h10v-254l-211 -147v-23l211 -143v-252h-10zM487 674v211l414 307h10v-254l-211 -147v-23l211 -143v-252h-10z" />
<glyph unicode="&#xac;" d="M31 657v240h866v-897h-238v657h-628z" />
<glyph unicode="&#xad;" horiz-adv-x="747" d="M41 653v254h664v-254h-664z" />
<glyph unicode="&#xaf;" horiz-adv-x="958" d="M70 1282v217h819v-217h-819z" />
<glyph unicode="&#xb0;" horiz-adv-x="684" d="M49 1264q0 80 3 130t9.5 80.5t15.5 49t23 35.5q29 29 83.5 42t156.5 13q104 0 159.5 -13t84.5 -42q12 -16 22 -35t16.5 -49.5t9.5 -81t3 -129.5q0 -80 -3 -131.5t-9.5 -83t-16.5 -50t-22 -32.5q-29 -33 -84.5 -44.5t-159.5 -11.5t-157.5 11.5t-82.5 44.5q-12 14 -22 32.5 t-16.5 50t-9.5 83t-3 131.5zM197 1268q0 -51 1 -83t4 -50.5t8 -27.5t13 -15q12 -8 37 -11.5t80 -3.5q59 0 84 3t35 12q8 6 14 15t9 27.5t4 50.5t1 83t-1 82.5t-4 50t-9 28t-14 15.5q-10 10 -35 13t-84 3q-55 0 -79.5 -3t-37.5 -13q-8 -6 -13 -15.5t-8 -28t-4 -50t-1 -82.5z " />
<glyph unicode="&#xb1;" d="M31 0zM31 119h866v-240h-866v240zM31 657v240h313v313h240v-313h313v-240h-313v-313h-240v313h-313z" />
<glyph unicode="&#xb2;" horiz-adv-x="571" d="M47 713zM47 1278v51q0 70 8 119t34 79.5t71 45t119 14.5q70 0 114.5 -12.5t72.5 -44t39 -87t11 -141.5q0 -37 -1 -61.5t-3 -43t-6 -33.5t-12 -34q-14 -31 -35 -59.5t-68 -73.5l-86 -82h205v-202h-447v208l142 140q29 27 46 44t27.5 29.5t15.5 20.5t11 20q10 23 12 44.5 t2 80.5q0 31 -2 48.5t-6 27.5q-4 6 -10 10t-22 4q-31 0 -37 -14q-4 -8 -5 -24.5t-1 -57.5v-36t4 -25h-189q-4 27 -4 45z" />
<glyph unicode="&#xb3;" horiz-adv-x="571" d="M45 698zM45 969q0 10 1 24t3 33h187q-2 -10 -2.5 -19.5t-0.5 -19.5q0 -25 1.5 -37t5.5 -24q4 -10 12 -14.5t29 -4.5q29 0 41 13.5t12 54.5q0 35 -1 54t-7.5 29.5t-16.5 12.5t-28 2h-101v156h101q29 0 36 13t7 77q0 53 -7.5 64.5t-35.5 11.5q-31 0 -38 -11.5t-7 -68.5 v-17.5t2 -17.5h-187q-2 12 -2 23.5v23.5q0 70 9.5 120t35 80.5t70.5 45t117 14.5t116.5 -8t70.5 -35t35 -74t9 -127q0 -86 -12.5 -125t-40.5 -63q14 -10 26.5 -20.5t20.5 -32t12 -57.5t4 -95q0 -72 -8 -120t-32.5 -76.5t-73 -42t-127.5 -13.5q-78 0 -124 16.5t-71 50.5 t-33 84t-8 120z" />
<glyph unicode="&#xb4;" horiz-adv-x="614" d="M70 1212v11l186 344h289v-13l-236 -342h-239z" />
<glyph unicode="&#xb6;" horiz-adv-x="1185" d="M31 1128q0 119 12 200t45 130t86 70.5t137 21.5h805v-1759h-258v1503h-170v-1503h-258v901h-119q-84 0 -137 22.5t-86 74t-45 135.5t-12 204z" />
<glyph unicode="&#xb7;" horiz-adv-x="460" d="M70 604v309h321v-309h-321zM70 604z" />
<glyph unicode="&#xb8;" horiz-adv-x="534" d="M70 -477l116 393h279v-12l-164 -391h-231v10z" />
<glyph unicode="&#xb9;" horiz-adv-x="571" d="M63 713zM63 1261v177h87q25 0 38 5t21 18t10 40t2 70h168v-650h113v-208h-436v208h120v340h-123z" />
<glyph unicode="&#xba;" horiz-adv-x="538" d="M45 1120q0 74 2 120t7 77t13.5 48t18.5 34q20 31 62 43t118 12t118 -12t65 -43q10 -16 17 -33.5t12 -48.5t7 -77t2 -120t-2 -121t-7 -77.5t-12 -49t-17 -32.5q-23 -31 -65 -43.5t-118 -12.5t-118 12.5t-62 43.5q-10 14 -18.5 32.5t-13.5 49t-7 78t-2 120.5zM229 1120 q0 -90 2 -122.5t7 -41.5q4 -8 28 -8q16 0 21.5 2t7.5 6q4 8 6 41t2 123v75t-1 47.5t-3 26.5t-4 13t-7 6t-22 2q-25 0 -28 -8q-2 -4 -4.5 -13t-3.5 -26.5t-1 -47.5v-75z" />
<glyph unicode="&#xbb;" horiz-adv-x="954" d="M41 373v252l211 143v23l-211 147v254h10l414 -307v-211l-414 -301h-10zM41 373zM487 373v252l211 143v23l-211 147v254h10l414 -307v-211l-414 -301h-10z" />
<glyph unicode="&#xbc;" horiz-adv-x="1267" d="M28 1261v177h87q25 0 38 5t21 18t10 40t2 70h168v-650h113v-208h-436v208h120v340h-123zM29 0zM101 0v10l886 1540h199v-10l-889 -1540h-196zM744 121v174l250 543h184v-541h61v-176h-61v-141h-186v141h-248zM912 297h86v178h-8z" />
<glyph unicode="&#xbd;" horiz-adv-x="1267" d="M26 1261v177h87q25 0 38 5t21 18t10 40t2 70h168v-650h113v-208h-436v208h120v340h-123zM27 0zM99 0v10l886 1540h199v-10l-889 -1540h-196zM770 545v51q0 70 8 119t34 79.5t71 45t119 14.5q70 0 114.5 -12.5t72.5 -44t39 -87t11 -141.5q0 -37 -1 -61.5t-3 -43t-6 -33.5 t-12 -34q-14 -31 -35 -59.5t-68 -73.5l-86 -82h205v-202h-447v208l142 140q29 27 46 44t27.5 29.5t15.5 20.5t11 20q10 23 12 44.5t2 80.5q0 31 -2 48.5t-6 27.5q-4 6 -10 10t-22 4q-31 0 -37 -14q-4 -8 -5 -24.5t-1 -57.5v-36t4 -25h-189q-4 27 -4 45z" />
<glyph unicode="&#xbe;" horiz-adv-x="1267" d="M37 0zM37 969q0 10 1 24t3 33h187q-2 -10 -2.5 -19.5t-0.5 -19.5q0 -25 1.5 -37t5.5 -24q4 -10 12 -14.5t29 -4.5q29 0 41 13.5t12 54.5q0 35 -1 54t-7.5 29.5t-16.5 12.5t-28 2h-101v156h101q29 0 36 13t7 77q0 53 -7.5 64.5t-35.5 11.5q-31 0 -38 -11.5t-7 -68.5v-17.5 t2 -17.5h-187q-2 12 -2 23.5v23.5q0 70 9.5 120t35 80.5t70.5 45t117 14.5t116.5 -8t70.5 -35t35 -74t9 -127q0 -86 -12.5 -125t-40.5 -63q14 -10 26.5 -20.5t20.5 -32t12 -57.5t4 -95q0 -72 -8 -120t-32.5 -76.5t-73 -42t-127.5 -13.5q-78 0 -124 16.5t-71 50.5t-33 84 t-8 120zM127 0v10l886 1540h199v-10l-889 -1540h-196zM733 121v174l250 543h184v-541h61v-176h-61v-141h-186v141h-248zM901 297h86v178h-8z" />
<glyph unicode="&#xbf;" horiz-adv-x="851" d="M43 -39q0 82 3 138.5t12.5 96.5t23.5 68.5t39 57.5q37 41 72.5 63.5t64.5 52.5q10 10 17.5 22.5t11.5 38t5 68.5t1 115h276q4 -35 4 -91v-122q0 -41 -8 -74t-25.5 -61.5t-45 -55t-66.5 -57.5q-35 -27 -53.5 -44t-27.5 -37.5t-11 -50.5t-2 -79q0 -72 16.5 -99.5 t75.5 -27.5t76.5 28t17.5 99v40t-2 28h268q8 -29 11.5 -66t3.5 -100q0 -98 -19.5 -163.5t-63.5 -105.5t-116 -56.5t-176 -16.5q-115 0 -188.5 20.5t-116.5 66.5t-60.5 121t-17.5 183zM272 838v309h322v-309h-322z" />
<glyph unicode="&#xc0;" horiz-adv-x="911" d="M25 0l165 1550h541l156 -1550h-332l-27 358h-155l-25 -358h-323zM25 0zM115 1957v13h288l187 -344v-11h-240zM387 672h127l-53 555h-23z" />
<glyph unicode="&#xc1;" horiz-adv-x="911" d="M25 0l165 1550h541l156 -1550h-332l-27 358h-155l-25 -358h-323zM25 0zM316 1615v11l186 344h289v-13l-236 -342h-239zM387 672h127l-53 555h-23z" />
<glyph unicode="&#xc2;" horiz-adv-x="911" d="M25 0l165 1550h541l156 -1550h-332l-27 358h-155l-25 -358h-323zM25 0zM90 1615v11l254 344h211l256 -344v-11h-254l-97 142h-22l-96 -142h-252zM387 672h127l-53 555h-23z" />
<glyph unicode="&#xc3;" horiz-adv-x="911" d="M25 0l165 1550h541l156 -1550h-332l-27 358h-155l-25 -358h-323zM25 0zM47 1601v225q31 47 81 83t123 36q61 0 114.5 -14.5t102 -31.5t92.5 -31.5t85 -14.5q63 0 113 25.5t98 91.5h10v-217q-47 -66 -101.5 -95.5t-128.5 -29.5q-53 0 -101 14t-94 31.5t-91 32t-88 14.5 q-63 0 -110.5 -27.5t-94.5 -91.5h-10zM387 672h127l-53 555h-23z" />
<glyph unicode="&#xc4;" horiz-adv-x="911" d="M25 0l165 1550h541l156 -1550h-332l-27 358h-155l-25 -358h-323zM25 0zM107 1658v252h276v-252h-276zM387 672h127l-53 555h-23zM529 1658v252h274v-252h-274z" />
<glyph unicode="&#xc5;" horiz-adv-x="911" d="M25 0l165 1550h541l156 -1550h-332l-27 358h-155l-25 -358h-323zM25 0zM238 1777q0 45 2 73t6 44t11 26.5t17 18.5q20 16 61.5 23.5t117.5 7.5q74 0 114.5 -7.5t61.5 -23.5q10 -8 17 -18.5t12.5 -26.5t7.5 -44t2 -73t-2 -71.5t-7.5 -44t-12.5 -27t-17 -17.5 q-20 -18 -61.5 -24t-114.5 -6q-78 0 -118 6t-61 24q-10 8 -17 17.5t-11 27t-6 44t-2 71.5zM375 1779q0 -37 2 -47t10 -14t20.5 -6t45.5 -2q31 0 43 2t18 6q8 4 11 14t3 47q0 41 -3 51.5t-11 16.5q-4 4 -17.5 6t-43.5 2q-33 0 -45.5 -2t-20.5 -6t-10 -15.5t-2 -52.5zM387 672 h127l-53 555h-23z" />
<glyph unicode="&#xc6;" horiz-adv-x="1277" d="M25 0l165 1550h1029v-327h-367v-273h360v-313h-360v-293h365v-344h-687v358h-157l-25 -358h-323zM387 672h143v555h-92z" />
<glyph unicode="&#xc7;" horiz-adv-x="925" d="M45 0zM45 788q0 180 4 293t13.5 184.5t23.5 112.5t35 76q41 70 118.5 96.5t225.5 26.5q131 0 211 -24.5t123 -80t57 -142.5t14 -210q0 -29 -1 -63.5t-3 -73.5h-301q0 61 -1 102t-3 68t-5 42t-5 26q-8 39 -86 39q-39 0 -56.5 -9.5t-23.5 -29.5q-6 -16 -9 -38t-6 -66 t-4 -121.5t-1 -202.5q0 -129 1 -207t4 -123t6 -67.5t9 -39.5q6 -20 24.5 -28.5t65.5 -8.5q61 0 74 35q8 20 12 43t6 50.5t3 63.5t1 83h297q6 -74 6 -139q0 -123 -13 -214t-56 -150.5t-122 -88.5t-208 -29q-154 0 -234.5 28t-119.5 99q-20 33 -34.5 78t-24 121t-13.5 192.5 t-4 296.5zM199 -477l116 393h279v-12l-164 -391h-231v10z" />
<glyph unicode="&#xc8;" horiz-adv-x="815" d="M70 0v1550h686v-327h-365v-273h359v-313h-359v-293h363v-344h-684zM70 0zM78 1957v13h288l187 -344v-11h-240z" />
<glyph unicode="&#xc9;" horiz-adv-x="815" d="M70 0v1550h686v-327h-365v-273h359v-313h-359v-293h363v-344h-684zM70 0zM285 1615v11l186 344h289v-13l-236 -342h-239z" />
<glyph unicode="&#xca;" horiz-adv-x="815" d="M55 0zM56 1615v11l254 344h211l256 -344v-11h-254l-97 142h-22l-96 -142h-252zM70 0v1550h686v-327h-365v-273h359v-313h-359v-293h363v-344h-684z" />
<glyph unicode="&#xcb;" horiz-adv-x="815" d="M68 0zM68 1658v252h276v-252h-276zM70 0v1550h686v-327h-365v-273h359v-313h-359v-293h363v-344h-684zM490 1658v252h274v-252h-274z" />
<glyph unicode="&#xcc;" horiz-adv-x="477" d="M-100 1957v13h288l187 -344v-11h-240zM0 0zM74 0v1550h329v-1550h-329z" />
<glyph unicode="&#xcd;" horiz-adv-x="477" d="M74 0v1550h329v-1550h-329zM74 0zM103 1615v11l186 344h289v-13l-236 -342h-239z" />
<glyph unicode="&#xce;" horiz-adv-x="477" d="M-120 1615v11l254 344h211l256 -344v-11h-254l-97 142h-22l-96 -142h-252zM0 0zM74 0v1550h329v-1550h-329z" />
<glyph unicode="&#xcf;" horiz-adv-x="477" d="M-108 1658v252h276v-252h-276zM0 0zM74 0v1550h329v-1550h-329zM314 1658v252h274v-252h-274z" />
<glyph unicode="&#xd0;" horiz-adv-x="964" d="M0 637v313h70v600h432q147 0 225 -27.5t119 -95.5q20 -35 33.5 -74.5t22.5 -109t13.5 -180.5t4.5 -287t-4.5 -287.5t-13.5 -181t-22.5 -110.5t-33.5 -74q-20 -35 -49 -58.5t-70 -38t-96.5 -20.5t-128.5 -6h-432v637h-70zM375 342h125q39 0 55 8t25 29q4 14 8 33.5t6 62.5 t3 116t1 191q0 119 -1 194t-3 118t-6 63.5t-8 34.5q-8 16 -24.5 24.5t-55.5 8.5h-125v-275h141v-313h-141v-295z" />
<glyph unicode="&#xd1;" horiz-adv-x="972" d="M68 0v1550h315l217 -538h12v538h295v-1550h-168l-366 831h-13v-831h-292zM68 0zM76 1601v225q31 47 81 83t123 36q61 0 114.5 -14.5t102 -31.5t92.5 -31.5t85 -14.5q63 0 113 25.5t98 91.5h10v-217q-47 -66 -101.5 -95.5t-128.5 -29.5q-53 0 -101 14t-94 31.5t-91 32 t-88 14.5q-63 0 -110.5 -27.5t-94.5 -91.5h-10z" />
<glyph unicode="&#xd2;" d="M45 0zM45 776q0 182 4 297t13.5 186.5t23.5 112.5t35 78q20 35 48 59.5t69 40t97 21.5t130 6q147 0 224 -28.5t118 -98.5q20 -37 34.5 -78t23.5 -112.5t13.5 -186.5t4.5 -297t-4.5 -298t-13.5 -187.5t-23.5 -113.5t-34.5 -77q-20 -37 -48 -60.5t-69 -38.5t-96 -21.5 t-129 -6.5q-150 0 -226.5 28t-117.5 99q-20 35 -34.5 77t-24 113.5t-13.5 187.5t-4 298zM123 1957v13h288l187 -344v-11h-240zM365 784q0 -125 1 -201.5t4 -121.5t6 -67.5t9 -37.5q6 -20 23.5 -28.5t56.5 -8.5t55.5 8.5t24.5 28.5q4 14 8 37t6 68t3 121.5t1 201.5 q0 129 -1 207t-3 124t-6 68.5t-8 37.5q-8 20 -24.5 29.5t-55.5 9.5t-56.5 -9.5t-23.5 -29.5q-6 -14 -9 -37t-6 -69t-4 -124t-1 -207z" />
<glyph unicode="&#xd3;" d="M45 0zM45 776q0 182 4 297t13.5 186.5t23.5 112.5t35 78q20 35 48 59.5t69 40t97 21.5t130 6q147 0 224 -28.5t118 -98.5q20 -37 34.5 -78t23.5 -112.5t13.5 -186.5t4.5 -297t-4.5 -298t-13.5 -187.5t-23.5 -113.5t-34.5 -77q-20 -37 -48 -60.5t-69 -38.5t-96 -21.5 t-129 -6.5q-150 0 -226.5 28t-117.5 99q-20 35 -34.5 77t-24 113.5t-13.5 187.5t-4 298zM328 1615v11l186 344h289v-13l-236 -342h-239zM365 784q0 -125 1 -201.5t4 -121.5t6 -67.5t9 -37.5q6 -20 23.5 -28.5t56.5 -8.5t55.5 8.5t24.5 28.5q4 14 8 37t6 68t3 121.5t1 201.5 q0 129 -1 207t-3 124t-6 68.5t-8 37.5q-8 20 -24.5 29.5t-55.5 9.5t-56.5 -9.5t-23.5 -29.5q-6 -14 -9 -37t-6 -69t-4 -124t-1 -207z" />
<glyph unicode="&#xd4;" d="M45 0zM45 776q0 182 4 297t13.5 186.5t23.5 112.5t35 78q20 35 48 59.5t69 40t97 21.5t130 6q147 0 224 -28.5t118 -98.5q20 -37 34.5 -78t23.5 -112.5t13.5 -186.5t4.5 -297t-4.5 -298t-13.5 -187.5t-23.5 -113.5t-34.5 -77q-20 -37 -48 -60.5t-69 -38.5t-96 -21.5 t-129 -6.5q-150 0 -226.5 28t-117.5 99q-20 35 -34.5 77t-24 113.5t-13.5 187.5t-4 298zM103 1615v11l254 344h211l256 -344v-11h-254l-97 142h-22l-96 -142h-252zM365 784q0 -125 1 -201.5t4 -121.5t6 -67.5t9 -37.5q6 -20 23.5 -28.5t56.5 -8.5t55.5 8.5t24.5 28.5 q4 14 8 37t6 68t3 121.5t1 201.5q0 129 -1 207t-3 124t-6 68.5t-8 37.5q-8 20 -24.5 29.5t-55.5 9.5t-56.5 -9.5t-23.5 -29.5q-6 -14 -9 -37t-6 -69t-4 -124t-1 -207z" />
<glyph unicode="&#xd5;" d="M45 0zM45 776q0 182 4 297t13.5 186.5t23.5 112.5t35 78q20 35 48 59.5t69 40t97 21.5t130 6q147 0 224 -28.5t118 -98.5q20 -37 34.5 -78t23.5 -112.5t13.5 -186.5t4.5 -297t-4.5 -298t-13.5 -187.5t-23.5 -113.5t-34.5 -77q-20 -37 -48 -60.5t-69 -38.5t-96 -21.5 t-129 -6.5q-150 0 -226.5 28t-117.5 99q-20 35 -34.5 77t-24 113.5t-13.5 187.5t-4 298zM56 1601v225q31 47 81 83t123 36q61 0 114.5 -14.5t102 -31.5t92.5 -31.5t85 -14.5q63 0 113 25.5t98 91.5h10v-217q-47 -66 -101.5 -95.5t-128.5 -29.5q-53 0 -101 14t-94 31.5 t-91 32t-88 14.5q-63 0 -110.5 -27.5t-94.5 -91.5h-10zM365 784q0 -125 1 -201.5t4 -121.5t6 -67.5t9 -37.5q6 -20 23.5 -28.5t56.5 -8.5t55.5 8.5t24.5 28.5q4 14 8 37t6 68t3 121.5t1 201.5q0 129 -1 207t-3 124t-6 68.5t-8 37.5q-8 20 -24.5 29.5t-55.5 9.5t-56.5 -9.5 t-23.5 -29.5q-6 -14 -9 -37t-6 -69t-4 -124t-1 -207z" />
<glyph unicode="&#xd6;" d="M45 0zM45 776q0 182 4 297t13.5 186.5t23.5 112.5t35 78q20 35 48 59.5t69 40t97 21.5t130 6q147 0 224 -28.5t118 -98.5q20 -37 34.5 -78t23.5 -112.5t13.5 -186.5t4.5 -297t-4.5 -298t-13.5 -187.5t-23.5 -113.5t-34.5 -77q-20 -37 -48 -60.5t-69 -38.5t-96 -21.5 t-129 -6.5q-150 0 -226.5 28t-117.5 99q-20 35 -34.5 77t-24 113.5t-13.5 187.5t-4 298zM115 1658v252h276v-252h-276zM365 784q0 -125 1 -201.5t4 -121.5t6 -67.5t9 -37.5q6 -20 23.5 -28.5t56.5 -8.5t55.5 8.5t24.5 28.5q4 14 8 37t6 68t3 121.5t1 201.5q0 129 -1 207 t-3 124t-6 68.5t-8 37.5q-8 20 -24.5 29.5t-55.5 9.5t-56.5 -9.5t-23.5 -29.5q-6 -14 -9 -37t-6 -69t-4 -124t-1 -207zM537 1658v252h274v-252h-274z" />
<glyph unicode="&#xd7;" d="M55 539l238 239l-236 234l170 172l236 -238l235 238l170 -172l-235 -234l239 -239l-172 -168l-237 235l-238 -235z" />
<glyph unicode="&#xd8;" d="M45 776q0 182 4 297t13.5 186.5t23.5 112.5t35 78q20 35 48 59.5t69 40t97 21.5t130 6q47 0 88 -3t76 -7l55 180h150l-74 -240q27 -25 47 -57q20 -37 34.5 -78t23.5 -112.5t13.5 -186.5t4.5 -297t-4.5 -298t-13.5 -187.5t-23.5 -113.5t-34.5 -77q-20 -37 -48 -60.5 t-69 -38.5t-96 -21.5t-129 -6.5q-109 0 -174 15l-78 -254h-150l95 315q-10 10 -19.5 22.5t-17.5 28.5q-20 35 -34.5 77t-24 113.5t-13.5 187.5t-4 298zM330 627h10l192 637q-10 4 -27.5 6t-39.5 2q-49 0 -71.5 -8.5t-31.5 -28.5q-6 -16 -11 -36.5t-8 -54.5t-4 -86t-1 -128 v-123t-1 -83t-3 -55.5t-4 -41.5zM391 315q23 -10 74 -10q47 0 69.5 9.5t30.5 29.5q6 14 10.5 35.5t7.5 56.5t4 90.5t1 139.5v113.5t1 77.5t3 54.5t4 42.5h-10z" />
<glyph unicode="&#xd9;" horiz-adv-x="946" d="M55 0zM55 477v1073h330v-1073q0 -55 3 -86t13.5 -47t29 -20.5t48.5 -4.5q31 0 48.5 4.5t27.5 20.5t13 47t3 86v1073h320v-1073q-2 -96 -8 -159.5t-15.5 -106.5t-21.5 -70.5t-29 -54.5q-20 -33 -48 -54.5t-69 -34.5t-96 -18.5t-129 -5.5q-150 0 -227.5 23.5t-116.5 89.5 q-16 27 -30.5 54.5t-24.5 70.5t-15.5 106.5t-5.5 159.5zM136 1957v13h288l187 -344v-11h-240z" />
<glyph unicode="&#xda;" horiz-adv-x="946" d="M55 0zM55 477v1073h330v-1073q0 -55 3 -86t13.5 -47t29 -20.5t48.5 -4.5q31 0 48.5 4.5t27.5 20.5t13 47t3 86v1073h320v-1073q-2 -96 -8 -159.5t-15.5 -106.5t-21.5 -70.5t-29 -54.5q-20 -33 -48 -54.5t-69 -34.5t-96 -18.5t-129 -5.5q-150 0 -227.5 23.5t-116.5 89.5 q-16 27 -30.5 54.5t-24.5 70.5t-15.5 106.5t-5.5 159.5zM338 1615v11l186 344h289v-13l-236 -342h-239z" />
<glyph unicode="&#xdb;" horiz-adv-x="946" d="M55 0zM55 477v1073h330v-1073q0 -55 3 -86t13.5 -47t29 -20.5t48.5 -4.5q31 0 48.5 4.5t27.5 20.5t13 47t3 86v1073h320v-1073q-2 -96 -8 -159.5t-15.5 -106.5t-21.5 -70.5t-29 -54.5q-20 -33 -48 -54.5t-69 -34.5t-96 -18.5t-129 -5.5q-150 0 -227.5 23.5t-116.5 89.5 q-16 27 -30.5 54.5t-24.5 70.5t-15.5 106.5t-5.5 159.5zM113 1615v11l254 344h211l256 -344v-11h-254l-97 142h-22l-96 -142h-252z" />
<glyph unicode="&#xdc;" horiz-adv-x="946" d="M55 0zM55 477v1073h330v-1073q0 -55 3 -86t13.5 -47t29 -20.5t48.5 -4.5q31 0 48.5 4.5t27.5 20.5t13 47t3 86v1073h320v-1073q-2 -96 -8 -159.5t-15.5 -106.5t-21.5 -70.5t-29 -54.5q-20 -33 -48 -54.5t-69 -34.5t-96 -18.5t-129 -5.5q-150 0 -227.5 23.5t-116.5 89.5 q-16 27 -30.5 54.5t-24.5 70.5t-15.5 106.5t-5.5 159.5zM125 1658v252h276v-252h-276zM547 1658v252h274v-252h-274z" />
<glyph unicode="&#xdd;" horiz-adv-x="915" d="M8 0zM8 1540v10h332q33 -145 52.5 -232t30.5 -139.5t17 -79t11 -50.5h20q4 25 10 51t17.5 78.5t32 139.5t55.5 232h321v-10l-270 -971v-569h-346v565zM324 1615v11l186 344h289v-13l-236 -342h-239z" />
<glyph unicode="&#xde;" horiz-adv-x="923" d="M70 0v1550h321v-237h144q104 0 171.5 -28t107.5 -90t55.5 -164.5t15.5 -252.5q0 -152 -15.5 -257t-55.5 -170.5t-107.5 -94.5t-171.5 -29h-144v-227h-321zM391 547h86q45 0 63.5 50t18.5 189q0 123 -21.5 163t-68.5 40h-78v-442z" />
<glyph unicode="&#xdf;" horiz-adv-x="1339" d="M137 0v1210q0 80 14.5 153t53.5 122q39 51 115.5 72.5t234.5 21.5q76 0 131 -5t94 -16.5t64.5 -30t44.5 -44.5q35 -49 45 -123t10 -152v-90q0 -25 1 -39t7 -24.5t17.5 -17.5t29.5 -17q72 -39 119 -60.5t84 -50.5q29 -23 46.5 -47t27.5 -64t14 -100.5t4 -152.5 q0 -117 -5 -199t-13 -137t-21.5 -88t-27.5 -53q-39 -53 -119 -74t-209 -21t-191.5 21.5t-97.5 75.5q-20 31 -32.5 68.5t-18.5 74.5t-8 71.5t-2 59.5q0 23 1 46.5t5 47.5h262v-26q0 -102 14 -129q10 -23 76 -23q35 0 50.5 5t21.5 18q8 16 13 62t5 167q0 49 -1 77.5t-7 46 t-16 27t-29 21.5q-66 41 -125 74t-100 71q-25 23 -38 47.5t-21.5 58.5t-10.5 81t-2 114v62q0 74 -15.5 98.5t-78.5 24.5q-33 0 -51.5 -5t-27.5 -19.5t-12 -38t-3 -60.5v-1192h-322z" />
<glyph unicode="&#xe0;" horiz-adv-x="911" d="M25 0l165 1550h541l156 -1550h-332l-27 358h-155l-25 -358h-323zM25 0zM115 1957v13h288l187 -344v-11h-240zM387 672h127l-53 555h-23z" />
<glyph unicode="&#xe1;" horiz-adv-x="911" d="M25 0l165 1550h541l156 -1550h-332l-27 358h-155l-25 -358h-323zM25 0zM316 1615v11l186 344h289v-13l-236 -342h-239zM387 672h127l-53 555h-23z" />
<glyph unicode="&#xe2;" horiz-adv-x="911" d="M25 0l165 1550h541l156 -1550h-332l-27 358h-155l-25 -358h-323zM25 0zM90 1615v11l254 344h211l256 -344v-11h-254l-97 142h-22l-96 -142h-252zM387 672h127l-53 555h-23z" />
<glyph unicode="&#xe3;" horiz-adv-x="911" d="M25 0l165 1550h541l156 -1550h-332l-27 358h-155l-25 -358h-323zM25 0zM47 1601v225q31 47 81 83t123 36q61 0 114.5 -14.5t102 -31.5t92.5 -31.5t85 -14.5q63 0 113 25.5t98 91.5h10v-217q-47 -66 -101.5 -95.5t-128.5 -29.5q-53 0 -101 14t-94 31.5t-91 32t-88 14.5 q-63 0 -110.5 -27.5t-94.5 -91.5h-10zM387 672h127l-53 555h-23z" />
<glyph unicode="&#xe4;" horiz-adv-x="911" d="M25 0l165 1550h541l156 -1550h-332l-27 358h-155l-25 -358h-323zM25 0zM107 1658v252h276v-252h-276zM387 672h127l-53 555h-23zM529 1658v252h274v-252h-274z" />
<glyph unicode="&#xe5;" horiz-adv-x="911" d="M25 0l165 1550h541l156 -1550h-332l-27 358h-155l-25 -358h-323zM25 0zM238 1777q0 45 2 73t6 44t11 26.5t17 18.5q20 16 61.5 23.5t117.5 7.5q74 0 114.5 -7.5t61.5 -23.5q10 -8 17 -18.5t12.5 -26.5t7.5 -44t2 -73t-2 -71.5t-7.5 -44t-12.5 -27t-17 -17.5 q-20 -18 -61.5 -24t-114.5 -6q-78 0 -118 6t-61 24q-10 8 -17 17.5t-11 27t-6 44t-2 71.5zM375 1779q0 -37 2 -47t10 -14t20.5 -6t45.5 -2q31 0 43 2t18 6q8 4 11 14t3 47q0 41 -3 51.5t-11 16.5q-4 4 -17.5 6t-43.5 2q-33 0 -45.5 -2t-20.5 -6t-10 -15.5t-2 -52.5zM387 672 h127l-53 555h-23z" />
<glyph unicode="&#xe6;" horiz-adv-x="1277" d="M25 0l165 1550h1029v-327h-367v-273h360v-313h-360v-293h365v-344h-687v358h-157l-25 -358h-323zM25 0zM387 672h143v555h-92z" />
<glyph unicode="&#xe7;" horiz-adv-x="925" d="M45 0zM45 788q0 180 4 293t13.5 184.5t23.5 112.5t35 76q41 70 118.5 96.5t225.5 26.5q131 0 211 -24.5t123 -80t57 -142.5t14 -210q0 -29 -1 -63.5t-3 -73.5h-301q0 61 -1 102t-3 68t-5 42t-5 26q-8 39 -86 39q-39 0 -56.5 -9.5t-23.5 -29.5q-6 -16 -9 -38t-6 -66 t-4 -121.5t-1 -202.5q0 -129 1 -207t4 -123t6 -67.5t9 -39.5q6 -20 24.5 -28.5t65.5 -8.5q61 0 74 35q8 20 12 43t6 50.5t3 63.5t1 83h297q6 -74 6 -139q0 -123 -13 -214t-56 -150.5t-122 -88.5t-208 -29q-154 0 -234.5 28t-119.5 99q-20 33 -34.5 78t-24 121t-13.5 192.5 t-4 296.5zM199 -477l116 393h279v-12l-164 -391h-231v10z" />
<glyph unicode="&#xe8;" horiz-adv-x="815" d="M70 0v1550h686v-327h-365v-273h359v-313h-359v-293h363v-344h-684zM70 0zM78 1957v13h288l187 -344v-11h-240z" />
<glyph unicode="&#xe9;" horiz-adv-x="815" d="M70 0v1550h686v-327h-365v-273h359v-313h-359v-293h363v-344h-684zM70 0zM285 1615v11l186 344h289v-13l-236 -342h-239z" />
<glyph unicode="&#xea;" horiz-adv-x="815" d="M55 0zM56 1615v11l254 344h211l256 -344v-11h-254l-97 142h-22l-96 -142h-252zM70 0v1550h686v-327h-365v-273h359v-313h-359v-293h363v-344h-684z" />
<glyph unicode="&#xeb;" horiz-adv-x="815" d="M68 0zM68 1658v252h276v-252h-276zM70 0v1550h686v-327h-365v-273h359v-313h-359v-293h363v-344h-684zM490 1658v252h274v-252h-274z" />
<glyph unicode="&#xec;" horiz-adv-x="477" d="M-100 1957v13h288l187 -344v-11h-240zM0 0zM74 0v1550h329v-1550h-329z" />
<glyph unicode="&#xed;" horiz-adv-x="477" d="M74 0v1550h329v-1550h-329zM74 0zM103 1615v11l186 344h289v-13l-236 -342h-239z" />
<glyph unicode="&#xee;" horiz-adv-x="477" d="M-120 1615v11l254 344h211l256 -344v-11h-254l-97 142h-22l-96 -142h-252zM0 0zM74 0v1550h329v-1550h-329z" />
<glyph unicode="&#xef;" horiz-adv-x="477" d="M-108 1658v252h276v-252h-276zM0 0zM74 0v1550h329v-1550h-329zM314 1658v252h274v-252h-274z" />
<glyph unicode="&#xf0;" horiz-adv-x="964" d="M0 0zM0 637v313h70v600h432q147 0 225 -27.5t119 -95.5q20 -35 33.5 -74.5t22.5 -109t13.5 -180.5t4.5 -287t-4.5 -287.5t-13.5 -181t-22.5 -110.5t-33.5 -74q-20 -35 -49 -58.5t-70 -38t-96.5 -20.5t-128.5 -6h-432v637h-70zM375 342h125q39 0 55 8t25 29q4 14 8 33.5 t6 62.5t3 116t1 191q0 119 -1 194t-3 118t-6 63.5t-8 34.5q-8 16 -24.5 24.5t-55.5 8.5h-125v-275h141v-313h-141v-295z" />
<glyph unicode="&#xf1;" horiz-adv-x="972" d="M68 0v1550h315l217 -538h12v538h295v-1550h-168l-366 831h-13v-831h-292zM68 0zM76 1601v225q31 47 81 83t123 36q61 0 114.5 -14.5t102 -31.5t92.5 -31.5t85 -14.5q63 0 113 25.5t98 91.5h10v-217q-47 -66 -101.5 -95.5t-128.5 -29.5q-53 0 -101 14t-94 31.5t-91 32 t-88 14.5q-63 0 -110.5 -27.5t-94.5 -91.5h-10z" />
<glyph unicode="&#xf2;" d="M45 0zM45 776q0 182 4 297t13.5 186.5t23.5 112.5t35 78q20 35 48 59.5t69 40t97 21.5t130 6q147 0 224 -28.5t118 -98.5q20 -37 34.5 -78t23.5 -112.5t13.5 -186.5t4.5 -297t-4.5 -298t-13.5 -187.5t-23.5 -113.5t-34.5 -77q-20 -37 -48 -60.5t-69 -38.5t-96 -21.5 t-129 -6.5q-150 0 -226.5 28t-117.5 99q-20 35 -34.5 77t-24 113.5t-13.5 187.5t-4 298zM123 1957v13h288l187 -344v-11h-240zM365 784q0 -125 1 -201.5t4 -121.5t6 -67.5t9 -37.5q6 -20 23.5 -28.5t56.5 -8.5t55.5 8.5t24.5 28.5q4 14 8 37t6 68t3 121.5t1 201.5 q0 129 -1 207t-3 124t-6 68.5t-8 37.5q-8 20 -24.5 29.5t-55.5 9.5t-56.5 -9.5t-23.5 -29.5q-6 -14 -9 -37t-6 -69t-4 -124t-1 -207z" />
<glyph unicode="&#xf3;" d="M45 0zM45 776q0 182 4 297t13.5 186.5t23.5 112.5t35 78q20 35 48 59.5t69 40t97 21.5t130 6q147 0 224 -28.5t118 -98.5q20 -37 34.5 -78t23.5 -112.5t13.5 -186.5t4.5 -297t-4.5 -298t-13.5 -187.5t-23.5 -113.5t-34.5 -77q-20 -37 -48 -60.5t-69 -38.5t-96 -21.5 t-129 -6.5q-150 0 -226.5 28t-117.5 99q-20 35 -34.5 77t-24 113.5t-13.5 187.5t-4 298zM328 1615v11l186 344h289v-13l-236 -342h-239zM365 784q0 -125 1 -201.5t4 -121.5t6 -67.5t9 -37.5q6 -20 23.5 -28.5t56.5 -8.5t55.5 8.5t24.5 28.5q4 14 8 37t6 68t3 121.5t1 201.5 q0 129 -1 207t-3 124t-6 68.5t-8 37.5q-8 20 -24.5 29.5t-55.5 9.5t-56.5 -9.5t-23.5 -29.5q-6 -14 -9 -37t-6 -69t-4 -124t-1 -207z" />
<glyph unicode="&#xf4;" d="M45 0zM45 776q0 182 4 297t13.5 186.5t23.5 112.5t35 78q20 35 48 59.5t69 40t97 21.5t130 6q147 0 224 -28.5t118 -98.5q20 -37 34.5 -78t23.5 -112.5t13.5 -186.5t4.5 -297t-4.5 -298t-13.5 -187.5t-23.5 -113.5t-34.5 -77q-20 -37 -48 -60.5t-69 -38.5t-96 -21.5 t-129 -6.5q-150 0 -226.5 28t-117.5 99q-20 35 -34.5 77t-24 113.5t-13.5 187.5t-4 298zM103 1615v11l254 344h211l256 -344v-11h-254l-97 142h-22l-96 -142h-252zM365 784q0 -125 1 -201.5t4 -121.5t6 -67.5t9 -37.5q6 -20 23.5 -28.5t56.5 -8.5t55.5 8.5t24.5 28.5 q4 14 8 37t6 68t3 121.5t1 201.5q0 129 -1 207t-3 124t-6 68.5t-8 37.5q-8 20 -24.5 29.5t-55.5 9.5t-56.5 -9.5t-23.5 -29.5q-6 -14 -9 -37t-6 -69t-4 -124t-1 -207z" />
<glyph unicode="&#xf5;" d="M45 0zM45 776q0 182 4 297t13.5 186.5t23.5 112.5t35 78q20 35 48 59.5t69 40t97 21.5t130 6q147 0 224 -28.5t118 -98.5q20 -37 34.5 -78t23.5 -112.5t13.5 -186.5t4.5 -297t-4.5 -298t-13.5 -187.5t-23.5 -113.5t-34.5 -77q-20 -37 -48 -60.5t-69 -38.5t-96 -21.5 t-129 -6.5q-150 0 -226.5 28t-117.5 99q-20 35 -34.5 77t-24 113.5t-13.5 187.5t-4 298zM56 1601v225q31 47 81 83t123 36q61 0 114.5 -14.5t102 -31.5t92.5 -31.5t85 -14.5q63 0 113 25.5t98 91.5h10v-217q-47 -66 -101.5 -95.5t-128.5 -29.5q-53 0 -101 14t-94 31.5 t-91 32t-88 14.5q-63 0 -110.5 -27.5t-94.5 -91.5h-10zM365 784q0 -125 1 -201.5t4 -121.5t6 -67.5t9 -37.5q6 -20 23.5 -28.5t56.5 -8.5t55.5 8.5t24.5 28.5q4 14 8 37t6 68t3 121.5t1 201.5q0 129 -1 207t-3 124t-6 68.5t-8 37.5q-8 20 -24.5 29.5t-55.5 9.5t-56.5 -9.5 t-23.5 -29.5q-6 -14 -9 -37t-6 -69t-4 -124t-1 -207z" />
<glyph unicode="&#xf6;" d="M45 0zM45 776q0 182 4 297t13.5 186.5t23.5 112.5t35 78q20 35 48 59.5t69 40t97 21.5t130 6q147 0 224 -28.5t118 -98.5q20 -37 34.5 -78t23.5 -112.5t13.5 -186.5t4.5 -297t-4.5 -298t-13.5 -187.5t-23.5 -113.5t-34.5 -77q-20 -37 -48 -60.5t-69 -38.5t-96 -21.5 t-129 -6.5q-150 0 -226.5 28t-117.5 99q-20 35 -34.5 77t-24 113.5t-13.5 187.5t-4 298zM115 1658v252h276v-252h-276zM365 784q0 -125 1 -201.5t4 -121.5t6 -67.5t9 -37.5q6 -20 23.5 -28.5t56.5 -8.5t55.5 8.5t24.5 28.5q4 14 8 37t6 68t3 121.5t1 201.5q0 129 -1 207 t-3 124t-6 68.5t-8 37.5q-8 20 -24.5 29.5t-55.5 9.5t-56.5 -9.5t-23.5 -29.5q-6 -14 -9 -37t-6 -69t-4 -124t-1 -207zM537 1658v252h274v-252h-274z" />
<glyph unicode="&#xf7;" d="M31 143zM31 657v240h866v-240h-866zM303 143v309h321v-309h-321zM303 1102v309h321v-309h-321z" />
<glyph unicode="&#xf8;" d="M45 0zM45 776q0 182 4 297t13.5 186.5t23.5 112.5t35 78q20 35 48 59.5t69 40t97 21.5t130 6q47 0 88 -3t76 -7l55 180h150l-74 -240q27 -25 47 -57q20 -37 34.5 -78t23.5 -112.5t13.5 -186.5t4.5 -297t-4.5 -298t-13.5 -187.5t-23.5 -113.5t-34.5 -77q-20 -37 -48 -60.5 t-69 -38.5t-96 -21.5t-129 -6.5q-109 0 -174 15l-78 -254h-150l95 315q-10 10 -19.5 22.5t-17.5 28.5q-20 35 -34.5 77t-24 113.5t-13.5 187.5t-4 298zM330 627h10l192 637q-10 4 -27.5 6t-39.5 2q-49 0 -71.5 -8.5t-31.5 -28.5q-6 -16 -11 -36.5t-8 -54.5t-4 -86t-1 -128 v-123t-1 -83t-3 -55.5t-4 -41.5zM391 315q23 -10 74 -10q47 0 69.5 9.5t30.5 29.5q6 14 10.5 35.5t7.5 56.5t4 90.5t1 139.5v113.5t1 77.5t3 54.5t4 42.5h-10z" />
<glyph unicode="&#xf9;" horiz-adv-x="946" d="M55 0zM55 477v1073h330v-1073q0 -55 3 -86t13.5 -47t29 -20.5t48.5 -4.5q31 0 48.5 4.5t27.5 20.5t13 47t3 86v1073h320v-1073q-2 -96 -8 -159.5t-15.5 -106.5t-21.5 -70.5t-29 -54.5q-20 -33 -48 -54.5t-69 -34.5t-96 -18.5t-129 -5.5q-150 0 -227.5 23.5t-116.5 89.5 q-16 27 -30.5 54.5t-24.5 70.5t-15.5 106.5t-5.5 159.5zM136 1957v13h288l187 -344v-11h-240z" />
<glyph unicode="&#xfa;" horiz-adv-x="946" d="M55 0zM55 477v1073h330v-1073q0 -55 3 -86t13.5 -47t29 -20.5t48.5 -4.5q31 0 48.5 4.5t27.5 20.5t13 47t3 86v1073h320v-1073q-2 -96 -8 -159.5t-15.5 -106.5t-21.5 -70.5t-29 -54.5q-20 -33 -48 -54.5t-69 -34.5t-96 -18.5t-129 -5.5q-150 0 -227.5 23.5t-116.5 89.5 q-16 27 -30.5 54.5t-24.5 70.5t-15.5 106.5t-5.5 159.5zM338 1615v11l186 344h289v-13l-236 -342h-239z" />
<glyph unicode="&#xfb;" horiz-adv-x="946" d="M55 0zM55 477v1073h330v-1073q0 -55 3 -86t13.5 -47t29 -20.5t48.5 -4.5q31 0 48.5 4.5t27.5 20.5t13 47t3 86v1073h320v-1073q-2 -96 -8 -159.5t-15.5 -106.5t-21.5 -70.5t-29 -54.5q-20 -33 -48 -54.5t-69 -34.5t-96 -18.5t-129 -5.5q-150 0 -227.5 23.5t-116.5 89.5 q-16 27 -30.5 54.5t-24.5 70.5t-15.5 106.5t-5.5 159.5zM113 1615v11l254 344h211l256 -344v-11h-254l-97 142h-22l-96 -142h-252z" />
<glyph unicode="&#xfc;" horiz-adv-x="946" d="M55 0zM55 477v1073h330v-1073q0 -55 3 -86t13.5 -47t29 -20.5t48.5 -4.5q31 0 48.5 4.5t27.5 20.5t13 47t3 86v1073h320v-1073q-2 -96 -8 -159.5t-15.5 -106.5t-21.5 -70.5t-29 -54.5q-20 -33 -48 -54.5t-69 -34.5t-96 -18.5t-129 -5.5q-150 0 -227.5 23.5t-116.5 89.5 q-16 27 -30.5 54.5t-24.5 70.5t-15.5 106.5t-5.5 159.5zM125 1658v252h276v-252h-276zM547 1658v252h274v-252h-274z" />
<glyph unicode="&#xfd;" horiz-adv-x="915" d="M8 0zM8 1540v10h332q33 -145 52.5 -232t30.5 -139.5t17 -79t11 -50.5h20q4 25 10 51t17.5 78.5t32 139.5t55.5 232h321v-10l-270 -971v-569h-346v565zM324 1615v11l186 344h289v-13l-236 -342h-239z" />
<glyph unicode="&#xfe;" horiz-adv-x="923" d="M70 0v1550h321v-237h144q104 0 171.5 -28t107.5 -90t55.5 -164.5t15.5 -252.5q0 -152 -15.5 -257t-55.5 -170.5t-107.5 -94.5t-171.5 -29h-144v-227h-321zM70 0zM391 547h86q45 0 63.5 50t18.5 189q0 123 -21.5 163t-68.5 40h-78v-442z" />
<glyph unicode="&#xff;" horiz-adv-x="915" d="M8 0zM8 1540v10h332q33 -145 52.5 -232t30.5 -139.5t17 -79t11 -50.5h20q4 25 10 51t17.5 78.5t32 139.5t55.5 232h321v-10l-270 -971v-569h-346v565zM111 1658v252h276v-252h-276zM533 1658v252h274v-252h-274z" />
<glyph unicode="&#x152;" horiz-adv-x="1320" d="M45 776q0 176 4 287t13.5 180.5t23.5 109.5t35 74q39 68 116.5 95.5t225.5 27.5h799v-327h-367v-273h360v-313h-360v-293h365v-344h-797q-147 0 -225 26.5t-117 96.5q-20 33 -34.5 74t-24 110.5t-13.5 181t-4 287.5zM373 782q0 -119 1 -191.5t4 -115.5t6 -62.5t9 -33.5 q6 -20 23.5 -28.5t56.5 -8.5h102v883h-102q-39 0 -56.5 -8.5t-23.5 -24.5q-6 -14 -9 -34.5t-6 -63.5t-4 -118t-1 -194z" />
<glyph unicode="&#x153;" horiz-adv-x="1320" d="M45 0zM45 776q0 176 4 287t13.5 180.5t23.5 109.5t35 74q39 68 116.5 95.5t225.5 27.5h799v-327h-367v-273h360v-313h-360v-293h365v-344h-797q-147 0 -225 26.5t-117 96.5q-20 33 -34.5 74t-24 110.5t-13.5 181t-4 287.5zM373 782q0 -119 1 -191.5t4 -115.5t6 -62.5 t9 -33.5q6 -20 23.5 -28.5t56.5 -8.5h102v883h-102q-39 0 -56.5 -8.5t-23.5 -24.5q-6 -14 -9 -34.5t-6 -63.5t-4 -118t-1 -194z" />
<glyph unicode="&#x178;" horiz-adv-x="915" d="M8 0zM8 1540v10h332q33 -145 52.5 -232t30.5 -139.5t17 -79t11 -50.5h20q4 25 10 51t17.5 78.5t32 139.5t55.5 232h321v-10l-270 -971v-569h-346v565zM111 1658v252h276v-252h-276zM533 1658v252h274v-252h-274z" />
<glyph unicode="&#x2c6;" horiz-adv-x="860" d="M70 1212v11l254 344h211l256 -344v-11h-254l-97 142h-22l-96 -142h-252z" />
<glyph unicode="&#x2dc;" horiz-adv-x="958" d="M70 1198v225q31 47 81 83t123 36q61 0 114.5 -14.5t102 -31.5t92.5 -31.5t85 -14.5q63 0 113 25.5t98 91.5h10v-217q-47 -66 -101.5 -95.5t-128.5 -29.5q-53 0 -101 14t-94 31.5t-91 32t-88 14.5q-63 0 -110.5 -27.5t-94.5 -91.5h-10z" />
<glyph unicode="&#x2000;" horiz-adv-x="985" />
<glyph unicode="&#x2001;" horiz-adv-x="1970" />
<glyph unicode="&#x2002;" horiz-adv-x="985" />
<glyph unicode="&#x2003;" horiz-adv-x="1970" />
<glyph unicode="&#x2004;" horiz-adv-x="656" />
<glyph unicode="&#x2005;" horiz-adv-x="492" />
<glyph unicode="&#x2006;" horiz-adv-x="328" />
<glyph unicode="&#x2007;" horiz-adv-x="328" />
<glyph unicode="&#x2008;" horiz-adv-x="246" />
<glyph unicode="&#x2009;" horiz-adv-x="394" />
<glyph unicode="&#x200a;" horiz-adv-x="109" />
<glyph unicode="&#x2010;" horiz-adv-x="747" d="M41 653v254h664v-254h-664z" />
<glyph unicode="&#x2011;" horiz-adv-x="747" d="M41 653v254h664v-254h-664z" />
<glyph unicode="&#x2012;" horiz-adv-x="747" d="M41 653v254h664v-254h-664z" />
<glyph unicode="&#x2013;" horiz-adv-x="1128" d="M41 653v254h1044v-254h-1044z" />
<glyph unicode="&#x2014;" horiz-adv-x="1570" d="M41 653v254h1487v-254h-1487z" />
<glyph unicode="&#x2018;" horiz-adv-x="460" d="M70 1012v303l153 299h154v-12l-98 -281l6 -18h106v-291h-321z" />
<glyph unicode="&#x2019;" horiz-adv-x="460" d="M70 1323v291h321v-301l-153 -301h-156v12l100 281l-6 18h-106z" />
<glyph unicode="&#x201a;" horiz-adv-x="460" d="M70 20v289h321v-301l-153 -299h-156v12l100 281l-6 18h-106z" />
<glyph unicode="&#x201c;" horiz-adv-x="921" d="M70 1012v303l153 299h154v-12l-98 -281l6 -18h106v-291h-321zM70 1012zM531 1012v303l153 299h154v-12l-98 -281l6 -18h106v-291h-321z" />
<glyph unicode="&#x201d;" horiz-adv-x="921" d="M70 1012zM70 1323v291h321v-301l-153 -301h-156v12l100 281l-6 18h-106zM531 1323v291h321v-301l-153 -301h-156v12l100 281l-6 18h-106z" />
<glyph unicode="&#x201e;" horiz-adv-x="921" d="M70 0zM70 20v289h321v-301l-153 -299h-156v12l100 281l-6 18h-106zM531 20v289h321v-301l-153 -299h-156v12l100 281l-6 18h-106z" />
<glyph unicode="&#x2022;" horiz-adv-x="686" d="M70 768q0 68 3 110t9 68.5t15 43t22 28.5q25 27 77 36t146 9q98 0 149.5 -9.5t77.5 -35.5q12 -12 21.5 -28.5t14.5 -43t8 -68.5t3 -110t-3 -111t-8 -69.5t-14.5 -42t-21.5 -27.5q-29 -27 -79 -37t-148 -10q-94 0 -146.5 10.5t-76.5 36.5q-12 12 -21.5 27.5t-15.5 42 t-9 69.5t-3 111z" />
<glyph unicode="&#x2026;" horiz-adv-x="1890" d="M109 0v309h321v-309h-321zM109 0zM785 0v309h321v-309h-321zM1461 0v309h321v-309h-321z" />
<glyph unicode="&#x202f;" horiz-adv-x="394" />
<glyph unicode="&#x2039;" horiz-adv-x="507" d="M41 674v211l414 307h10v-254l-211 -147v-23l211 -143v-252h-10z" />
<glyph unicode="&#x203a;" horiz-adv-x="507" d="M41 373v252l211 143v23l-211 147v254h10l414 -307v-211l-414 -301h-10z" />
<glyph unicode="&#x205f;" horiz-adv-x="492" />
<glyph unicode="&#x20ac;" d="M23 578l30 131h64v157h-94l30 131h64q2 193 19.5 307.5t64.5 175t131 79t223 18.5q121 0 194.5 -30.5t96.5 -63.5l-70 -295h-10q-27 35 -71 57.5t-115 22.5q-55 0 -89 -6.5t-50.5 -33t-22.5 -80.5t-6 -151h319l-31 -131h-288v-157h254l-31 -131h-223q2 -96 7 -150.5 t17.5 -81.5t34 -34t55.5 -7q37 0 57.5 8.5t30 23.5t11.5 36.5t2 50.5h266q4 -41 7 -80t3 -74q0 -74 -15.5 -129t-56 -92t-112.5 -56.5t-184 -19.5q-133 0 -213 13.5t-125 72t-61.5 180t-18.5 339.5h-94z" />
<glyph unicode="&#x2122;" horiz-adv-x="1509" d="M39 1376v174h510v-174h-154v-561h-205v561h-151zM618 815v735h291l105 -342h22l115 342h289v-735h-187v406h-22l-150 -406h-102l-152 406h-22v-406h-187z" />
<glyph unicode="&#x25fc;" horiz-adv-x="1546" d="M0 0v1546h1546v-1546h-1546z" />
</font>
</defs>
</svg>
